<?xml version="1.0" encoding="UTF-8"?>
<svg version="1.1" xmlns="http://www.w3.org/2000/svg" width="195" height="201">
<path d="M0 0 C4.04978242 1.32009482 7.4577321 3.45478484 11.078125 5.671875 C12.52013774 6.5428194 13.96284883 7.41260857 15.40625 8.28125 C16.13626221 8.72130371 16.86627441 9.16135742 17.6184082 9.61474609 C20.51110635 11.32588364 23.45150812 12.942817 26.39501953 14.56445312 C31.18484903 17.23668391 35.90738981 20.02605414 40.640625 22.796875 C41.64416016 23.38339844 42.64769531 23.96992188 43.68164062 24.57421875 C45.70636499 25.75758366 47.7308611 26.9413392 49.75512695 28.12548828 C53.85975272 30.52493504 57.96779778 32.91850141 62.07617188 35.31152344 C74.47055443 42.56430443 74.47055443 42.56430443 75.828125 43.921875 C76.73240189 48.94691115 76.9906578 53.8886429 77.02099609 58.98095703 C77.03326233 60.14087158 77.03326233 60.14087158 77.04577637 61.32421875 C77.07040412 63.85936744 77.08707914 66.39446143 77.1015625 68.9296875 C77.10688618 69.79963223 77.11220985 70.66957695 77.11769485 71.56588364 C77.14431568 76.16224025 77.16373381 80.75857061 77.17822266 85.35498047 C77.19160542 89.15340012 77.21955284 92.9512881 77.26025391 96.74951172 C77.30951697 101.3482512 77.33433365 105.94650583 77.34144974 110.54549789 C77.34816316 112.29422186 77.3633877 114.04293492 77.38734055 115.79150772 C77.41893589 118.23544348 77.41903943 120.67749596 77.41162109 123.12158203 C77.42802643 123.84066742 77.44443176 124.55975281 77.46133423 125.30062866 C77.41306149 129.18804515 76.95080312 130.77348412 74.44024658 133.8102417 C72.01608423 135.76992917 69.70497724 137.36863249 66.9765625 138.8671875 C66.05214355 139.38128174 65.12772461 139.89537598 64.17529297 140.42504883 C63.19447754 140.96025146 62.21366211 141.4954541 61.203125 142.046875 C59.12975415 143.19840135 57.0568443 144.35075811 54.984375 145.50390625 C53.94925781 146.07705566 52.91414062 146.65020508 51.84765625 147.24072266 C47.44043254 149.69448579 43.06733278 152.20506737 38.703125 154.734375 C37.53789307 155.40883667 37.53789307 155.40883667 36.34912109 156.09692383 C30.76062164 159.34620458 25.26081983 162.71938474 19.7734375 166.13671875 C15.9424934 168.45865702 12.02584419 170.59430308 8.0703125 172.6953125 C5.65534563 173.9739934 5.65534563 173.9739934 2.828125 175.921875 C-0.296875 176.109375 -0.296875 176.109375 -3.171875 175.921875 C-4.171875 174.921875 -4.171875 174.921875 -4.28540039 171.96264648 C-4.27754517 170.02240601 -4.27754517 170.02240601 -4.26953125 168.04296875 C-4.2681163 167.3563063 -4.26670135 166.66964386 -4.26524353 165.96217346 C-4.25962979 163.76119699 -4.24707507 161.56032091 -4.234375 159.359375 C-4.22936176 157.87044417 -4.22479855 156.38151176 -4.22070312 154.89257812 C-4.20965593 151.23564425 -4.19238213 147.57876942 -4.171875 143.921875 C-4.831875 143.921875 -5.491875 143.921875 -6.171875 143.921875 C-6.171875 143.261875 -6.171875 142.601875 -6.171875 141.921875 C-6.873125 141.839375 -7.574375 141.756875 -8.296875 141.671875 C-12.00566879 140.70436358 -14.26530621 139.4320935 -17.171875 136.921875 C-18.19923529 132.06057934 -18.25217036 127.36665518 -18.171875 122.4140625 C-18.1707178 121.00130196 -18.17209474 119.58853746 -18.17578125 118.17578125 C-18.18021381 115.97772635 -18.17157516 113.78394758 -18.12060547 111.58642578 C-18.02196173 106.92524948 -18.03951073 102.47694507 -19.171875 97.921875 C-21.85919994 95.19018384 -24.50366819 93.93804239 -28.171875 92.921875 C-28.171875 90.941875 -28.171875 88.961875 -28.171875 86.921875 C-25.35950429 85.77831055 -24.34253712 85.85152951 -21.48046875 87.03125 C-20.53300781 87.57265625 -19.58554688 88.1140625 -18.609375 88.671875 C-17.18431641 89.46851562 -17.18431641 89.46851562 -15.73046875 90.28125 C-10.45747246 93.66240792 -10.45747246 93.66240792 -9.73950195 96.82861328 C-9.71331787 97.54259277 -9.68713379 98.25657227 -9.66015625 98.9921875 C-9.6250293 99.79857666 -9.58990234 100.60496582 -9.55371094 101.43579102 C-9.53083008 102.29744873 -9.50794922 103.15910645 -9.484375 104.046875 C-9.42878418 105.37319946 -9.42878418 105.37319946 -9.37207031 106.72631836 C-9.20663923 111.1319057 -9.15814874 115.51120481 -9.29296875 119.91796875 C-9.32233521 121.07498291 -9.32233521 121.07498291 -9.35229492 122.25537109 C-9.39781648 123.71365826 -9.46609934 125.1714568 -9.55981445 126.62744141 C-9.68819308 128.84147236 -9.68819308 128.84147236 -9.171875 131.921875 C-7.521875 132.911875 -5.871875 133.901875 -4.171875 134.921875 C-4.171875 120.071875 -4.171875 105.221875 -4.171875 89.921875 C-5.821875 89.261875 -7.471875 88.601875 -9.171875 87.921875 C-10.46221485 87.22849068 -11.73670575 86.50466834 -12.9921875 85.75 C-13.68731445 85.33564697 -14.38244141 84.92129395 -15.09863281 84.49438477 C-15.82405273 84.05795654 -16.54947266 83.62152832 -17.296875 83.171875 C-23.09560459 79.7183845 -28.91870194 76.35310585 -34.875 73.17578125 C-37.35030809 71.8244651 -39.76256006 70.38711441 -42.171875 68.921875 C-42.14867187 69.69273438 -42.12546875 70.46359375 -42.1015625 71.2578125 C-42.08351562 72.26070313 -42.06546875 73.26359375 -42.046875 74.296875 C-42.02367187 75.29460937 -42.00046875 76.29234375 -41.9765625 77.3203125 C-42.171875 79.921875 -42.171875 79.921875 -44.171875 81.921875 C-48.85187246 81.65444657 -52.22489808 79.23162178 -56.171875 76.921875 C-56.14867188 78.19804688 -56.12546875 79.47421875 -56.1015625 80.7890625 C-56.08280671 82.4583275 -56.06460631 84.1275988 -56.046875 85.796875 C-56.03011719 86.63863281 -56.01335938 87.48039062 -55.99609375 88.34765625 C-55.98964844 89.15332031 -55.98320313 89.95898438 -55.9765625 90.7890625 C-55.96608887 91.53269043 -55.95561523 92.27631836 -55.94482422 93.04248047 C-56.171875 94.921875 -56.171875 94.921875 -58.171875 96.921875 C-59.491875 96.921875 -60.811875 96.921875 -62.171875 96.921875 C-63.55496281 94.15569937 -63.28397696 91.911695 -63.26953125 88.8203125 C-63.26630859 87.60859375 -63.26308594 86.396875 -63.25976562 85.1484375 C-63.25138672 83.87742187 -63.24300781 82.60640625 -63.234375 81.296875 C-63.22760742 79.37875 -63.22760742 79.37875 -63.22070312 77.421875 C-63.20888703 74.25516208 -63.19241315 71.08854144 -63.171875 67.921875 C-61.30566406 66.87939453 -61.30566406 66.87939453 -59.171875 65.921875 C-57.03125 66.6015625 -57.03125 66.6015625 -54.921875 67.796875 C-54.21546875 68.18617187 -53.5090625 68.57546875 -52.78125 68.9765625 C-51.98460937 69.44449219 -51.98460937 69.44449219 -51.171875 69.921875 C-50.841875 68.271875 -50.511875 66.621875 -50.171875 64.921875 C-50.77515625 64.52355469 -51.3784375 64.12523438 -52 63.71484375 C-52.79921875 63.18503906 -53.5984375 62.65523437 -54.421875 62.109375 C-55.21078125 61.58730469 -55.9996875 61.06523438 -56.8125 60.52734375 C-58.98279981 59.05053378 -61.08601268 57.51497627 -63.171875 55.921875 C-62.841875 54.271875 -62.511875 52.621875 -62.171875 50.921875 C-59.56605129 49.99122367 -58.52989276 49.77270093 -55.921875 50.859375 C-55.055625 51.3853125 -55.055625 51.3853125 -54.171875 51.921875 C-54.171875 52.581875 -54.171875 53.241875 -54.171875 53.921875 C-53.64980469 54.00953125 -53.12773438 54.0971875 -52.58984375 54.1875 C-49.2745957 55.19439278 -46.44940171 56.92138954 -43.484375 58.671875 C-42.21901621 59.40800987 -40.95339177 60.1436883 -39.6875 60.87890625 C-39.07841797 61.2342041 -38.46933594 61.58950195 -37.84179688 61.95556641 C-35.82364693 63.1233789 -33.782633 64.24534154 -31.734375 65.359375 C-26.83817299 68.05274888 -22.07523307 70.97002396 -17.31079102 73.88842773 C-14.61702737 75.52496344 -12.17319288 76.92143571 -9.171875 77.921875 C-9.171875 78.581875 -9.171875 79.241875 -9.171875 79.921875 C-7.17645632 80.60213137 -5.17569509 81.26677997 -3.171875 81.921875 C-2.51292236 82.14246582 -1.85396973 82.36305664 -1.17504883 82.59033203 C2.40279934 83.18249752 5.21562675 80.64568495 8.140625 78.796875 C9.65745432 77.87010084 11.17576788 76.94575288 12.6953125 76.0234375 C13.51483398 75.52360352 14.33435547 75.02376953 15.17871094 74.50878906 C19.98426676 71.63041523 24.87901621 68.90957966 29.765625 66.171875 C36.09218756 62.62736188 42.36987718 59.02642404 48.57592773 55.27441406 C50.50311276 54.1170585 52.44017896 52.98558924 54.39453125 51.875 C55.38324219 51.31296875 56.37195313 50.7509375 57.390625 50.171875 C58.40253906 49.59953125 59.41445312 49.0271875 60.45703125 48.4375 C62.93238247 47.14066021 62.93238247 47.14066021 63.828125 44.921875 C63.0954541 44.64569336 62.3627832 44.36951172 61.60791016 44.08496094 C59.012982 42.99922075 56.74670855 41.778831 54.3515625 40.3125 C53.52156738 39.8081543 52.69157227 39.30380859 51.83642578 38.78417969 C50.53294189 37.98608887 50.53294189 37.98608887 49.203125 37.171875 C43.0213861 33.42314971 36.83677163 29.74436874 30.45703125 26.33984375 C27.2395124 24.60439153 24.06387702 22.79894728 20.890625 20.984375 C20.00721436 20.48321167 20.00721436 20.48321167 19.10595703 19.97192383 C16.18923922 18.30964355 13.3251362 16.60611307 10.48046875 14.8203125 C9.44019531 14.17320313 8.39992188 13.52609375 7.328125 12.859375 C5.95140625 11.97572266 5.95140625 11.97572266 4.546875 11.07421875 C1.09661206 9.61182282 -0.60154809 9.87370563 -4.171875 10.921875 C-6.8632369 12.29087172 -6.8632369 12.29087172 -9.359375 13.984375 C-13.85893382 16.921875 -13.85893382 16.921875 -17.171875 16.921875 C-17.171875 17.581875 -17.171875 18.241875 -17.171875 18.921875 C-17.82671875 19.27378906 -18.4815625 19.62570313 -19.15625 19.98828125 C-25.28685571 23.30469649 -31.33142502 26.74088836 -37.33984375 30.2734375 C-39.74515813 31.67349635 -42.16569564 33.0280835 -44.609375 34.359375 C-49.54214034 37.06879538 -54.29345818 40.06411402 -59.05859375 43.0546875 C-62.171875 44.921875 -62.171875 44.921875 -65.50390625 46.1640625 C-66.38433594 46.74414062 -67.26476562 47.32421875 -68.171875 47.921875 C-69.28653571 53.82801145 -69.30569521 59.6773377 -69.26953125 65.671875 C-69.2681163 66.57059326 -69.26670135 67.46931152 -69.26524353 68.39526367 C-69.25969083 71.23750275 -69.24714737 74.07966013 -69.234375 76.921875 C-69.22935388 78.86067594 -69.22479205 80.79947812 -69.22070312 82.73828125 C-69.20973694 87.46617683 -69.19250544 92.19401211 -69.171875 96.921875 C-65.11613546 98.27621483 -65.11613546 98.27621483 -61.0546875 99.61328125 C-58.6351196 100.81231157 -57.61786627 101.59152384 -56.171875 103.921875 C-55.27005798 109.52612668 -55.78061604 115.28898805 -56.171875 120.921875 C-58.646875 121.911875 -58.646875 121.911875 -61.171875 122.921875 C-63.171875 120.921875 -63.171875 120.921875 -63.3671875 117.8828125 C-63.34398437 116.69945313 -63.32078125 115.51609375 -63.296875 114.296875 C-63.27882813 113.10835938 -63.26078125 111.91984375 -63.2421875 110.6953125 C-63.21898437 109.78007813 -63.19578125 108.86484375 -63.171875 107.921875 C-65.151875 107.261875 -67.131875 106.601875 -69.171875 105.921875 C-69.171875 113.511875 -69.171875 121.101875 -69.171875 128.921875 C-67.851875 129.251875 -66.531875 129.581875 -65.171875 129.921875 C-65.171875 130.581875 -65.171875 131.241875 -65.171875 131.921875 C-64.3675 132.0765625 -64.3675 132.0765625 -63.546875 132.234375 C-60.54685456 133.10280197 -57.9339215 134.47807796 -55.171875 135.921875 C-55.171875 136.581875 -55.171875 137.241875 -55.171875 137.921875 C-54.388125 138.06625 -53.604375 138.210625 -52.796875 138.359375 C-50.171875 138.921875 -50.171875 138.921875 -48.171875 139.921875 C-47.676875 136.951875 -47.676875 136.951875 -47.171875 133.921875 C-47.77 133.633125 -48.368125 133.344375 -48.984375 133.046875 C-51.171875 131.921875 -51.171875 131.921875 -54.171875 129.921875 C-53.841875 128.271875 -53.511875 126.621875 -53.171875 124.921875 C-49.77488557 123.74808689 -47.78609916 123.95682441 -44.484375 125.359375 C-42.0703125 126.73046875 -42.0703125 126.73046875 -40.171875 128.921875 C-39.77931798 131.71371706 -39.5959196 134.13410318 -39.609375 136.921875 C-39.78939278 142.18874727 -39.78939278 142.18874727 -37.74609375 146.8671875 C-35.60889984 148.16063952 -33.50469718 149.02774915 -31.171875 149.921875 C-29.16115487 151.00639728 -27.1612486 152.11117569 -25.171875 153.234375 C-23.50653117 154.13266508 -21.84032895 155.02937482 -20.171875 155.921875 C-20.171875 156.581875 -20.171875 157.241875 -20.171875 157.921875 C-19.615 158.025 -19.058125 158.128125 -18.484375 158.234375 C-15.64945296 159.07718966 -13.56236523 160.17746321 -11.171875 161.921875 C-10.296875 163.984375 -10.296875 163.984375 -10.171875 165.921875 C-10.501875 166.581875 -10.831875 167.241875 -11.171875 167.921875 C-16.72599967 168.49614406 -20.12155299 166.60863455 -24.671875 163.734375 C-26.16380543 162.8250989 -27.65600767 161.91626868 -29.1484375 161.0078125 C-30.34774902 160.26869629 -30.34774902 160.26869629 -31.57128906 159.51464844 C-36.36582007 156.57815573 -41.20880484 153.72333123 -46.046875 150.859375 C-47.00400391 150.28743408 -47.96113281 149.71549316 -48.94726562 149.1262207 C-49.84380859 148.59343506 -50.74035156 148.06064941 -51.6640625 147.51171875 C-52.86071533 146.79810181 -52.86071533 146.79810181 -54.08154297 146.07006836 C-56.25673152 144.79383047 -56.25673152 144.79383047 -59.171875 143.921875 C-59.171875 143.261875 -59.171875 142.601875 -59.171875 141.921875 C-59.69394531 141.82777344 -60.21601562 141.73367187 -60.75390625 141.63671875 C-64.03930832 140.66542864 -66.84542185 139.10779209 -69.859375 137.484375 C-71.01824219 136.86691406 -72.17710938 136.24945313 -73.37109375 135.61328125 C-76.171875 133.921875 -76.171875 133.921875 -77.171875 131.921875 C-77.28590821 129.1972084 -77.33971651 126.49751382 -77.34887695 123.77197266 C-77.35544815 122.92954514 -77.36201935 122.08711761 -77.36878967 121.21916199 C-77.38853916 118.42475298 -77.40018798 115.63039771 -77.41015625 112.8359375 C-77.41423178 111.88293133 -77.4183073 110.92992516 -77.42250633 109.94804001 C-77.44337259 104.90546637 -77.45767277 99.86292 -77.46704102 94.8203125 C-77.4781159 89.60566644 -77.51252663 84.39144589 -77.55221272 79.17695045 C-77.57832414 75.17240593 -77.5867279 71.1679637 -77.59032249 67.16334152 C-77.59520144 65.24076839 -77.60685244 63.31820022 -77.62536049 61.39570999 C-77.64963926 58.70698288 -77.64880791 56.01936896 -77.6418457 53.33056641 C-77.65465576 52.53457535 -77.66746582 51.73858429 -77.68066406 50.91847229 C-77.64752875 47.4128329 -77.50639565 45.36145059 -75.35173035 42.53012085 C-72.39418004 40.34811 -69.31012869 38.46669015 -66.109375 36.671875 C-65.48482422 36.30835938 -64.86027344 35.94484375 -64.21679688 35.5703125 C-61.33279399 33.93286369 -59.54191788 32.921875 -56.171875 32.921875 C-56.171875 32.261875 -56.171875 31.601875 -56.171875 30.921875 C-51.77734375 28.48046875 -47.3828125 26.0390625 -42.98828125 23.59765625 C-41.78316895 22.92754517 -41.78316895 22.92754517 -40.55371094 22.24389648 C-39.03752727 21.40234928 -37.52008276 20.56306675 -36.00097656 19.72680664 C-29.54067275 16.16338509 -23.16699879 12.45611399 -16.796875 8.734375 C-15.71792969 8.10595703 -14.63898438 7.47753906 -13.52734375 6.83007812 C-12.49480469 6.22744141 -11.46226563 5.62480469 -10.3984375 5.00390625 C-9.46596191 4.45968018 -8.53348633 3.9154541 -7.57275391 3.35473633 C-1.84067047 -0.06621117 -1.84067047 -0.06621117 0 0 Z M63.25 55.10546875 C58.93370726 57.87065449 54.52560361 60.43724262 50.078125 62.984375 C43.11359427 66.99063708 36.20537622 71.08020851 29.328125 75.234375 C20.64706371 80.4706235 11.90191853 85.39273229 2.828125 89.921875 C2.80494056 99.09276758 2.78717878 108.26365004 2.77631283 117.43456554 C2.77109736 121.6931226 2.76402396 125.95165958 2.75268555 130.21020508 C2.7418092 134.32099416 2.73583809 138.43176394 2.73324776 142.5425663 C2.73140207 144.10981869 2.72779793 145.67707003 2.72239494 147.24431419 C2.71512152 149.4417892 2.71413672 151.63918479 2.71459961 153.83666992 C2.712379 155.08687424 2.71015839 156.33707855 2.70787048 157.62516785 C2.81368863 160.52611034 3.15353367 163.10641735 3.828125 165.921875 C9.43206117 163.17039283 14.90160742 160.25695074 20.328125 157.171875 C21.05515625 156.76066406 21.7821875 156.34945312 22.53125 155.92578125 C24.29787452 154.9262437 26.06314565 153.92431473 27.828125 152.921875 C27.828125 152.261875 27.828125 151.601875 27.828125 150.921875 C28.66730469 150.75365234 28.66730469 150.75365234 29.5234375 150.58203125 C32.17429221 149.82271863 34.29409058 148.70301578 36.703125 147.359375 C37.67121094 146.82054687 38.63929688 146.28171875 39.63671875 145.7265625 C47.22991797 141.49080377 47.22991797 141.49080377 54.71977234 137.07803345 C56.828125 135.921875 56.828125 135.921875 59.78767395 134.78207397 C63.41615899 133.17881518 65.97685597 131.69820648 68.828125 128.921875 C70.53856533 123.15268325 70.23177519 117.57859049 70 111.61328125 C69.97759662 109.91940845 69.96052536 108.22545748 69.94854736 106.53147888 C69.90289056 102.08894246 69.78519058 97.65117251 69.65209961 93.21051025 C69.52896994 88.67289731 69.47445951 84.1345078 69.4140625 79.59570312 C69.28565753 70.7023412 69.08107642 61.81250551 68.828125 52.921875 C66.29044494 52.921875 65.36551416 53.7232512 63.25 55.10546875 Z " fill="#8D8D8D" transform="translate(96.171875,6.078125)"/>
<path d="M0 0 C2.56695636 0.39491636 4.67123994 0.83561997 7 2 C7 2.66 7 3.32 7 4 C7.78310547 4.13148437 7.78310547 4.13148437 8.58203125 4.265625 C11.8972793 5.27251778 14.72247329 6.99951454 17.6875 8.75 C18.95285879 9.48613487 20.21848323 10.2218133 21.484375 10.95703125 C22.09345703 11.3123291 22.70253906 11.66762695 23.33007812 12.03369141 C25.34822807 13.2015039 27.389242 14.32346654 29.4375 15.4375 C34.33370201 18.13087388 39.09664193 21.04814896 43.86108398 23.96655273 C46.55484763 25.60308844 48.99868212 26.99956071 52 28 C52 28.66 52 29.32 52 30 C52.66 30 53.32 30 54 30 C54.4125 30.474375 54.825 30.94875 55.25 31.4375 C57.93947873 33.83882029 59.36466107 34.06609707 63 34 C65.68090347 32.61084307 68.14085884 31.05165572 70.6328125 29.34765625 C73 28 73 28 77 28 C77.495 29.485 77.495 29.485 78 31 C76.6312552 31.96724632 75.25464396 32.9233644 73.875 33.875 C73.10929687 34.40867188 72.34359375 34.94234375 71.5546875 35.4921875 C69 37 69 37 63 39 C63 65.07 63 91.14 63 118 C64.65 116.68 66.3 115.36 68 114 C81.48899756 105 81.48899756 105 89 105 C89.33 106.32 89.66 107.64 90 109 C89.39003174 109.33733154 88.78006348 109.67466309 88.15161133 110.0222168 C85.36699011 111.56864065 82.58976936 113.12791424 79.8125 114.6875 C78.85279297 115.21794922 77.89308594 115.74839844 76.90429688 116.29492188 C71.05587959 119.53422827 71.05587959 119.53422827 66.02734375 123.87109375 C64 126 64 126 60.75 126.375 C58 126 58 126 57 125 C56.91209025 122.70848583 56.89305962 120.41427476 56.90234375 118.12109375 C56.9037587 117.4344313 56.90517365 116.74776886 56.90663147 116.04029846 C56.91224521 113.83932199 56.92479993 111.63844591 56.9375 109.4375 C56.94251324 107.94856917 56.94707645 106.45963676 56.95117188 104.97070312 C56.96221907 101.31376925 56.97949287 97.65689442 57 94 C56.34 94 55.68 94 55 94 C55 93.34 55 92.68 55 92 C54.29875 91.9175 53.5975 91.835 52.875 91.75 C49.16620621 90.78248858 46.90656879 89.5102185 44 87 C42.97263971 82.13870434 42.91970464 77.44478018 43 72.4921875 C43.0011572 71.07942696 42.99978026 69.66666246 42.99609375 68.25390625 C42.99166119 66.05585135 43.00029984 63.86207258 43.05126953 61.66455078 C43.14991327 57.00337448 43.13236427 52.55507007 42 48 C39.31267506 45.26830884 36.66820681 44.01616739 33 43 C33 41.02 33 39.04 33 37 C35.81237071 35.85643555 36.82933788 35.92965451 39.69140625 37.109375 C40.63886719 37.65078125 41.58632812 38.1921875 42.5625 38.75 C43.51253906 39.28109375 44.46257812 39.8121875 45.44140625 40.359375 C50.71440254 43.74053292 50.71440254 43.74053292 51.43237305 46.90673828 C51.45855713 47.62071777 51.48474121 48.33469727 51.51171875 49.0703125 C51.5468457 49.87670166 51.58197266 50.68309082 51.61816406 51.51391602 C51.64104492 52.37557373 51.66392578 53.23723145 51.6875 54.125 C51.72456055 55.00921631 51.76162109 55.89343262 51.79980469 56.80444336 C51.96523577 61.2100307 52.01372626 65.58932981 51.87890625 69.99609375 C51.84953979 71.15310791 51.84953979 71.15310791 51.81958008 72.33349609 C51.77405852 73.79178326 51.70577566 75.2495818 51.61206055 76.70556641 C51.48368192 78.91959736 51.48368192 78.91959736 52 82 C53.65 82.99 55.3 83.98 57 85 C57 70.15 57 55.3 57 40 C55.35 39.34 53.7 38.68 52 38 C50.70966015 37.30661568 49.43516925 36.58279334 48.1796875 35.828125 C47.48456055 35.41377197 46.78943359 34.99941895 46.07324219 34.57250977 C45.34782227 34.13608154 44.62240234 33.69965332 43.875 33.25 C38.07627041 29.7965095 32.25317306 26.43123085 26.296875 23.25390625 C23.82156691 21.9025901 21.40931494 20.46523941 19 19 C19.02320312 19.77085938 19.04640625 20.54171875 19.0703125 21.3359375 C19.09738281 22.84027344 19.09738281 22.84027344 19.125 24.375 C19.14820312 25.37273437 19.17140625 26.37046875 19.1953125 27.3984375 C19 30 19 30 17 32 C12.32000254 31.73257157 8.94697692 29.30974678 5 27 C5.02320313 28.27617188 5.04640625 29.55234375 5.0703125 30.8671875 C5.08906829 32.5364525 5.10726869 34.2057238 5.125 35.875 C5.14175781 36.71675781 5.15851562 37.55851562 5.17578125 38.42578125 C5.18222656 39.23144531 5.18867187 40.03710938 5.1953125 40.8671875 C5.20578613 41.61081543 5.21625977 42.35444336 5.22705078 43.12060547 C5 45 5 45 3 47 C1.68 47 0.36 47 -1 47 C-2.38308781 44.23382437 -2.11210196 41.98982 -2.09765625 38.8984375 C-2.09443359 37.68671875 -2.09121094 36.475 -2.08789062 35.2265625 C-2.07951172 33.95554688 -2.07113281 32.68453125 -2.0625 31.375 C-2.05798828 30.09625 -2.05347656 28.8175 -2.04882812 27.5 C-2.03701203 24.33328708 -2.02053815 21.16666644 -2 18 C-0.13378906 16.95751953 -0.13378906 16.95751953 2 16 C4.140625 16.6796875 4.140625 16.6796875 6.25 17.875 C6.95640625 18.26429687 7.6628125 18.65359375 8.390625 19.0546875 C8.92171875 19.36664063 9.4528125 19.67859375 10 20 C10.33 18.35 10.66 16.7 11 15 C10.39671875 14.60167969 9.7934375 14.20335938 9.171875 13.79296875 C7.97304688 12.99826172 7.97304688 12.99826172 6.75 12.1875 C5.96109375 11.66542969 5.1721875 11.14335938 4.359375 10.60546875 C2.18907519 9.12865878 0.08586232 7.59310127 -2 6 C-1.125 1.125 -1.125 1.125 0 0 Z " fill="#EEEEEE" transform="translate(35,56)"/>
<path d="M0 0 C0.33 17.16 0.66 34.32 1 52 C3.64 53.32 6.28 54.64 9 56 C8.01 58.475 8.01 58.475 7 61 C5.35 61 3.7 61 2 61 C2 68.59 2 76.18 2 84 C3.32 84.33 4.64 84.66 6 85 C6 85.66 6 86.32 6 87 C6.53625 87.103125 7.0725 87.20625 7.625 87.3125 C10.62502044 88.18092697 13.2379535 89.55620296 16 91 C16 91.66 16 92.32 16 93 C16.78375 93.144375 17.5675 93.28875 18.375 93.4375 C21 94 21 94 23 95 C23.33 93.02 23.66 91.04 24 89 C23.401875 88.71125 22.80375 88.4225 22.1875 88.125 C20 87 20 87 17 85 C17.33 83.35 17.66 81.7 18 80 C21.39698943 78.82621189 23.38577584 79.03494941 26.6875 80.4375 C29.1015625 81.80859375 29.1015625 81.80859375 31 84 C31.39255702 86.79184206 31.5759554 89.21222818 31.5625 92 C31.38248222 97.26687227 31.38248222 97.26687227 33.42578125 101.9453125 C35.56297516 103.23876452 37.66717782 104.10587415 40 105 C42.01072013 106.08452228 44.0106264 107.18930069 46 108.3125 C47.66534383 109.21079008 49.33154605 110.10749982 51 111 C51 111.66 51 112.32 51 113 C51.556875 113.103125 52.11375 113.20625 52.6875 113.3125 C55.52242204 114.15531466 57.60950977 115.25558821 60 117 C60.875 119.0625 60.875 119.0625 61 121 C60.67 121.66 60.34 122.32 60 123 C54.44587533 123.57426906 51.05032201 121.68675955 46.5 118.8125 C45.00806957 117.9032239 43.51586733 116.99439368 42.0234375 116.0859375 C41.22389648 115.59319336 40.42435547 115.10044922 39.60058594 114.59277344 C34.80605493 111.65628073 29.96307016 108.80145623 25.125 105.9375 C24.16787109 105.36555908 23.21074219 104.79361816 22.22460938 104.2043457 C21.32806641 103.67156006 20.43152344 103.13877441 19.5078125 102.58984375 C18.71004395 102.11409912 17.91227539 101.63835449 17.09033203 101.14819336 C14.91514348 99.87195547 14.91514348 99.87195547 12 99 C12 98.34 12 97.68 12 97 C11.443125 96.896875 10.88625 96.79375 10.3125 96.6875 C6.03135947 95.41472849 3.10138396 93.10138396 0 90 C-1.32 89.34 -2.64 88.68 -4 88 C-4 59.29 -4 30.58 -4 1 C-2 0 -2 0 0 0 Z " fill="#B9B9B9" transform="translate(25,51)"/>
<path d="M0 0 C2.4375 0.6875 2.4375 0.6875 5 2 C5.875 4.5 5.875 4.5 6 7 C5.67 7.66 5.34 8.32 5 9 C6.65 8.34 8.3 7.68 10 7 C10 33.4 10 59.8 10 87 C8.35 87.33 6.7 87.66 5 88 C4.5359375 88.9590625 4.5359375 88.9590625 4.0625 89.9375 C3 92 3 92 0.125 93.1875 C-1.421875 93.5896875 -1.421875 93.5896875 -3 94 C-4.175625 94.309375 -4.175625 94.309375 -5.375 94.625 C-6.179375 94.810625 -6.179375 94.810625 -7 95 C-3.44005237 90.82093105 1.08663054 88.31440569 6 86 C6.66 86 7.32 86 8 86 C8 60.92 8 35.84 8 10 C4.7 11.98 1.4 13.96 -2 16 C-4.95497577 17.71461557 -7.91252918 19.42350296 -10.875 21.125 C-17.79650775 25.11236017 -24.66237702 29.18308923 -31.5 33.3125 C-37.53447115 36.9553976 -43.57619864 40.52052679 -49.80859375 43.81640625 C-50.89333984 44.40228516 -50.89333984 44.40228516 -52 45 C-52.85816315 45.38181931 -53.71632629 45.76363861 -54.60049438 46.1570282 C-57.30085303 47.81448235 -57.30085303 47.81448235 -57.60800171 50.9778595 C-57.59587143 52.80603462 -57.59587143 52.80603462 -57.58349609 54.67114258 C-57.58583252 55.34469284 -57.58816895 56.0182431 -57.59057617 56.71220398 C-57.59219191 58.94043342 -57.55813954 61.16659503 -57.5234375 63.39453125 C-57.51664628 64.94527947 -57.51192517 66.49603803 -57.50918579 68.04679871 C-57.49576169 72.13345732 -57.45146071 76.21924954 -57.40161133 80.30560303 C-57.36631075 83.6310632 -57.35314807 86.95643416 -57.34119225 90.28204823 C-57.32635474 94.25709678 -57.30117091 98.23205411 -57.2734375 102.20703125 C-57.26852673 102.96159922 -57.26361595 103.71616718 -57.25855637 104.49360085 C-57.24217061 106.64272365 -57.2187601 108.79164679 -57.19287109 110.94067383 C-57.18001068 112.16184402 -57.16715027 113.38301422 -57.15390015 114.64118958 C-57.00733564 117.83990261 -56.59923015 120.8576302 -56 124 C-57.485 124.495 -57.485 124.495 -59 125 C-59 98.93 -59 72.86 -59 46 C-54.38 43.36 -49.76 40.72 -45 38 C-45 37.01 -45 36.02 -45 35 C-48.74791308 36.52976044 -52.15686162 38.06066104 -55.5625 40.25 C-59 42 -59 42 -62.25 41.9375 C-64.99335704 41.00226465 -66.23500989 40.25526514 -68 38 C-66.25396484 38.62068359 -66.25396484 38.62068359 -64.47265625 39.25390625 C-60.78164637 40.16147854 -60.05462058 40.02271523 -56.30859375 38.46484375 C-55.00314548 37.64596398 -53.7134402 36.80163879 -52.4375 35.9375 C-50.95761145 35.00092541 -49.47572443 34.0675035 -47.9921875 33.13671875 C-46.80061035 32.3775415 -46.80061035 32.3775415 -45.58496094 31.60302734 C-40.83654914 28.65836623 -35.94097054 25.97164814 -31.0625 23.25 C-24.7352166 19.70682904 -18.45820141 16.10452098 -12.25219727 12.35253906 C-10.32501224 11.1951835 -8.38794604 10.06371424 -6.43359375 8.953125 C-5.44488281 8.39109375 -4.45617187 7.8290625 -3.4375 7.25 C-2.42558594 6.67765625 -1.41367188 6.1053125 -0.37109375 5.515625 C2.10425747 4.21878521 2.10425747 4.21878521 3 2 C2.01 1.67 1.02 1.34 0 1 C0 0.67 0 0.34 0 0 Z " fill="#B4B4B4" transform="translate(157,49)"/>
<path d="M0 0 C2.56695636 0.39491636 4.67123994 0.83561997 7 2 C7 2.66 7 3.32 7 4 C7.78310547 4.13148437 7.78310547 4.13148437 8.58203125 4.265625 C11.8972793 5.27251778 14.72247329 6.99951454 17.6875 8.75 C18.95285879 9.48613487 20.21848323 10.2218133 21.484375 10.95703125 C22.09345703 11.3123291 22.70253906 11.66762695 23.33007812 12.03369141 C25.34822807 13.2015039 27.389242 14.32346654 29.4375 15.4375 C34.33370201 18.13087388 39.09664193 21.04814896 43.86108398 23.96655273 C46.55484763 25.60308844 48.99868212 26.99956071 52 28 C52 28.66 52 29.32 52 30 C51.01 30.33 50.02 30.66 49 31 C49 31.99 49 32.98 49 34 C49.639375 34.103125 50.27875 34.20625 50.9375 34.3125 C51.618125 34.539375 52.29875 34.76625 53 35 C53.33 35.99 53.66 36.98 54 38 C49.4348865 36.66253775 45.81103823 34.81303817 41.8125 32.25 C36.78747605 29.07168684 31.68699664 26.11701498 26.4375 23.32421875 C23.91257814 21.95250639 21.45400076 20.49431118 19 19 C19.02320312 19.77085938 19.04640625 20.54171875 19.0703125 21.3359375 C19.09738281 22.84027344 19.09738281 22.84027344 19.125 24.375 C19.14820312 25.37273437 19.17140625 26.37046875 19.1953125 27.3984375 C19 30 19 30 17 32 C12.32000254 31.73257157 8.94697692 29.30974678 5 27 C5.02320313 28.27617188 5.04640625 29.55234375 5.0703125 30.8671875 C5.08906829 32.5364525 5.10726869 34.2057238 5.125 35.875 C5.14175781 36.71675781 5.15851562 37.55851562 5.17578125 38.42578125 C5.18222656 39.23144531 5.18867187 40.03710938 5.1953125 40.8671875 C5.20578613 41.61081543 5.21625977 42.35444336 5.22705078 43.12060547 C5 45 5 45 3 47 C1.68 47 0.36 47 -1 47 C-2.38308781 44.23382437 -2.11210196 41.98982 -2.09765625 38.8984375 C-2.09443359 37.68671875 -2.09121094 36.475 -2.08789062 35.2265625 C-2.07951172 33.95554688 -2.07113281 32.68453125 -2.0625 31.375 C-2.05798828 30.09625 -2.05347656 28.8175 -2.04882812 27.5 C-2.03701203 24.33328708 -2.02053815 21.16666644 -2 18 C-0.13378906 16.95751953 -0.13378906 16.95751953 2 16 C4.140625 16.6796875 4.140625 16.6796875 6.25 17.875 C6.95640625 18.26429687 7.6628125 18.65359375 8.390625 19.0546875 C8.92171875 19.36664063 9.4528125 19.67859375 10 20 C10.33 18.35 10.66 16.7 11 15 C10.39671875 14.60167969 9.7934375 14.20335938 9.171875 13.79296875 C7.97304688 12.99826172 7.97304688 12.99826172 6.75 12.1875 C5.96109375 11.66542969 5.1721875 11.14335938 4.359375 10.60546875 C2.18907519 9.12865878 0.08586232 7.59310127 -2 6 C-1.125 1.125 -1.125 1.125 0 0 Z " fill="#C2C2C2" transform="translate(35,56)"/>
<path d="M0 0 C3.46896389 2.06869295 4.76777963 3.14780526 5.83984375 7.08203125 C6.75513672 10.35629368 6.75513672 10.35629368 10.37890625 11.57421875 C11.76662732 11.97001948 13.16189103 12.34004857 14.5625 12.6875 C16.01187325 13.0905907 17.46109302 13.49423371 18.91015625 13.8984375 C19.61156738 14.0850293 20.31297852 14.27162109 21.03564453 14.46386719 C23.55751251 15.15216225 26.02728944 15.9658439 28.5 16.8125 C29.655 17.204375 30.81 17.59625 32 18 C30.42031927 22.7390422 26.40767053 23.97522508 22.1875 26.3125 C21.36701172 26.79267578 20.54652344 27.27285156 19.70117188 27.76757812 C18.90646484 28.21166016 18.11175781 28.65574219 17.29296875 29.11328125 C16.5661792 29.52360596 15.83938965 29.93393066 15.09057617 30.35668945 C13 31 13 31 10.87255859 30.27612305 C8.16281647 28.42947089 6.44458121 26.08101814 4.4375 23.5 C0.2870567 17.92291029 0.2870567 17.92291029 -5.99609375 15.5078125 C-8.28722512 15.25295339 -10.57890067 15.00293895 -12.87109375 14.7578125 C-16.4531275 13.89025376 -17.79806804 12.91796362 -20 10 C-20.125 7 -20.125 7 -19 4 C-13.98947297 -1.28888964 -6.9012098 -1.17467401 0 0 Z " fill="#C8C8C8" transform="translate(92,39)"/>
<path d="M0 0 C8.58981182 4.31243614 8.58981182 4.31243614 9.9140625 6.9609375 C10.15505027 9.9866728 10.33848302 12.99270516 10.4765625 16.0234375 C10.52264648 16.91216553 10.56873047 17.80089355 10.61621094 18.71655273 C10.82569077 23.14279863 10.93810774 27.53105063 10.80078125 31.9609375 C10.7697229 33.11710571 10.7697229 33.11710571 10.73803711 34.29663086 C10.68962027 35.7540896 10.61964354 37.2110304 10.52563477 38.66625977 C10.39787812 40.88050174 10.39787812 40.88050174 10.9140625 43.9609375 C12.5640625 44.9509375 14.2140625 45.9409375 15.9140625 46.9609375 C15.9140625 32.1109375 15.9140625 17.2609375 15.9140625 1.9609375 C14.9240625 1.6309375 13.9340625 1.3009375 12.9140625 0.9609375 C14.8515625 0.3984375 14.8515625 0.3984375 16.9140625 -0.0390625 C17.9140625 0.9609375 17.9140625 0.9609375 18.03431702 2.94142151 C18.0309861 4.2438102 18.0309861 4.2438102 18.02758789 5.57250977 C18.02751236 6.55345108 18.02743683 7.5343924 18.02735901 8.5450592 C18.02219772 9.6117131 18.01703644 10.678367 18.01171875 11.77734375 C18.0103038 12.863535 18.00888885 13.94972626 18.00743103 15.0688324 C18.00181298 18.55372825 17.98925742 22.03856092 17.9765625 25.5234375 C17.97154983 27.87955637 17.96698652 30.23567624 17.96289062 32.59179688 C17.95183769 38.38153214 17.93508201 44.17123031 17.9140625 49.9609375 C16.9240625 49.9609375 15.9340625 49.9609375 14.9140625 49.9609375 C15.39625244 50.72229004 15.39625244 50.72229004 15.88818359 51.49902344 C17.24956607 54.7660822 17.26885981 57.86623182 17.328125 61.3515625 C17.34749115 62.05617615 17.3668573 62.76078979 17.3868103 63.48675537 C17.44638985 65.72802789 17.49290373 67.96935239 17.5390625 70.2109375 C17.57726229 71.73439688 17.61631519 73.25783512 17.65625 74.78125 C17.75207268 78.50761856 17.83618357 82.23414585 17.9140625 85.9609375 C20.93672953 85.36442444 23.93132108 84.73424083 26.9140625 83.9609375 C25.2890625 85.9609375 25.2890625 85.9609375 22.9140625 87.9609375 C19.7265625 88.2734375 19.7265625 88.2734375 16.9140625 87.9609375 C15.9140625 86.9609375 15.9140625 86.9609375 15.80053711 84.00170898 C15.80577393 82.70821533 15.81101074 81.41472168 15.81640625 80.08203125 C15.8178212 79.3953688 15.81923615 78.70870636 15.82069397 78.00123596 C15.82630771 75.80025949 15.83886243 73.59938341 15.8515625 71.3984375 C15.85657574 69.90950667 15.86113895 68.42057426 15.86523438 66.93164062 C15.87628157 63.27470675 15.89355537 59.61783192 15.9140625 55.9609375 C15.2540625 55.9609375 14.5940625 55.9609375 13.9140625 55.9609375 C13.9140625 55.3009375 13.9140625 54.6409375 13.9140625 53.9609375 C13.2128125 53.8784375 12.5115625 53.7959375 11.7890625 53.7109375 C8.08026871 52.74342608 5.82063129 51.471156 2.9140625 48.9609375 C1.88670221 44.09964184 1.83376714 39.40571768 1.9140625 34.453125 C1.9152197 33.04036446 1.91384276 31.62759996 1.91015625 30.21484375 C1.90572369 28.01678885 1.91436234 25.82301008 1.96533203 23.62548828 C2.06397577 18.96431198 2.04642677 14.51600757 0.9140625 9.9609375 C-1.77326244 7.22924634 -4.41773069 5.97710489 -8.0859375 4.9609375 C-8.0859375 2.9809375 -8.0859375 1.0009375 -8.0859375 -1.0390625 C-4.53210699 -2.22367267 -3.2954826 -1.52854299 0 0 Z " fill="#686868" transform="translate(76.0859375,94.0390625)"/>
<path d="M0 0 C3.26237618 0.65695447 5.80098072 1.85873945 8.6875 3.5 C9.47511719 3.9434375 10.26273438 4.386875 11.07421875 4.84375 C13 6 13 6 14 7 C14.16429878 9.6648045 14.26351784 12.30501937 14.31982422 14.97290039 C14.34085205 15.80875671 14.36187988 16.64461304 14.38354492 17.50579834 C14.56673126 25.23540365 14.67262957 32.96654048 14.75568962 40.69780827 C14.81228798 45.89376154 14.89378068 51.08662194 15.03564453 56.28100586 C15.17219349 61.30105328 15.24453981 66.3182978 15.27234268 71.34008598 C15.29378855 73.25134218 15.33778527 75.16248717 15.405056 77.07267952 C15.89362047 91.61779848 15.89362047 91.61779848 12.75409698 95.56736374 C9.2539766 98.5988087 5.28320529 100.28484973 1 102 C-0.9447497 102.98582699 -2.88379988 103.98313124 -4.8125 105 C-6.20523385 105.67311779 -7.59979398 106.34256693 -9 107 C-7.375 100.26785714 -7.375 100.26785714 -4.8125 98.4375 C-2 97 -2 97 1.25 95.9375 C4.13618706 95.31285945 4.13618706 95.31285945 5 93 C6.98 92.505 6.98 92.505 9 92 C9.33 65.6 9.66 39.2 10 12 C8.35 12.66 6.7 13.32 5 14 C5.12375 13.0925 5.2475 12.185 5.375 11.25 C5.25125 10.1775 5.1275 9.105 5 8 C2.11490087 5.57577814 2.11490087 5.57577814 -1 4 C-0.67 2.68 -0.34 1.36 0 0 Z " fill="#F4F4F4" transform="translate(157,44)"/>
<path d="M0 0 C5.95156566 1.56620149 10.88303262 4.68157066 16 8 C16.73992187 8.41378906 17.47984375 8.82757813 18.2421875 9.25390625 C22.23263145 13.21774724 21.16091431 20.69510117 21.19287109 26.05908203 C21.20513733 27.21899658 21.20513733 27.21899658 21.21765137 28.40234375 C21.24227912 30.93749244 21.25895414 33.47258643 21.2734375 36.0078125 C21.27876118 36.87775723 21.28408485 37.74770195 21.28956985 38.64400864 C21.31619068 43.24036525 21.33560881 47.83669561 21.35009766 52.43310547 C21.36348042 56.23152512 21.39142784 60.0294131 21.43212891 63.82763672 C21.48139197 68.4263762 21.50620865 73.02463083 21.51332474 77.62362289 C21.52003816 79.37234686 21.5352627 81.12105992 21.55921555 82.86963272 C21.59081089 85.31356848 21.59091443 87.75562096 21.58349609 90.19970703 C21.59990143 90.91879242 21.61630676 91.63787781 21.63320923 92.37875366 C21.58493649 96.26617015 21.12267812 97.85160912 18.61212158 100.8883667 C16.18795923 102.84805417 13.87685224 104.44675749 11.1484375 105.9453125 C10.22401855 106.45940674 9.29959961 106.97350098 8.34716797 107.50317383 C7.36635254 108.03837646 6.38553711 108.5735791 5.375 109.125 C3.30162915 110.27652635 1.2287193 111.42888311 -0.84375 112.58203125 C-2.39642578 113.44175537 -2.39642578 113.44175537 -3.98046875 114.31884766 C-8.38769017 116.77260952 -12.7608554 119.28308655 -17.125 121.8125 C-17.8989209 122.26069092 -18.6728418 122.70888184 -19.47021484 123.1706543 C-24.1022698 125.86497124 -28.69337537 128.61762164 -33.25 131.4375 C-34.26320313 132.06398437 -35.27640625 132.69046875 -36.3203125 133.3359375 C-37.96418507 134.35676799 -39.60544842 135.38183332 -41.2421875 136.4140625 C-43.125 137.5625 -43.125 137.5625 -46 139 C-46.99 138.67 -47.98 138.34 -49 138 C-46.62828823 136.57697294 -44.25631307 135.15441808 -41.8828125 133.734375 C-39.97621194 132.5873145 -38.07503525 131.43118511 -36.1796875 130.265625 C-34.85324219 129.45351563 -34.85324219 129.45351563 -33.5 128.625 C-32.6853125 128.12226563 -31.870625 127.61953125 -31.03125 127.1015625 C-29 126 -29 126 -27 126 C-27.33 124.68 -27.66 123.36 -28 122 C-30.97 122.99 -33.94 123.98 -37 125 C-33.89448334 121.89448334 -32.10801767 121.18676066 -28 120 C-28 119.34 -28 118.68 -28 118 C-27.44054687 117.731875 -26.88109375 117.46375 -26.3046875 117.1875 C-22.23353515 115.19774065 -18.22477456 113.15961973 -14.32421875 110.8515625 C-13.38956787 110.30048828 -13.38956787 110.30048828 -12.43603516 109.73828125 C-11.19738456 109.00225744 -9.96383405 108.25757498 -8.73583984 107.50390625 C-7.20003254 106.59290017 -5.60253796 105.78772347 -4 105 C-3.01 105.33 -2.02 105.66 -1 106 C-1.66 107.65 -2.32 109.3 -3 111 C7.395 105.06 7.395 105.06 18 99 C18.40782529 87.84684961 18.73748155 76.69869803 18.93261909 65.53975964 C19.02631404 60.35708978 19.15316236 55.17981003 19.35791016 50.00024414 C19.55454677 44.99412783 19.66130247 39.99316542 19.70779037 34.98348427 C19.74087691 33.07985512 19.80551168 31.1764878 19.90314102 29.27507591 C20.41761578 20.40174952 20.41761578 20.40174952 18 12 C13.43092029 7.2896777 7.56873612 4.42576089 1.62444878 1.8042345 C1.08838068 1.53883712 0.55231258 1.27343973 0 1 C0 0.67 0 0.34 0 0 Z " fill="#646464" transform="translate(152,39)"/>
<path d="M0 0 C-0.1875 2.3125 -0.1875 2.3125 -1 5 C-3.375 6.625 -3.375 6.625 -6 8 C-6.68835938 8.74056641 -6.68835938 8.74056641 -7.390625 9.49609375 C-9.3212618 11.30020823 -10.84151854 11.7414411 -13.375 12.4375 C-17.34616391 13.65198217 -19.79746094 15.33121745 -23 18 C-23.825 18.144375 -24.65 18.28875 -25.5 18.4375 C-28.22977377 18.81765412 -28.22977377 18.81765412 -30.3125 21.3125 C-34.24930586 25.24930586 -38.75893136 27.25297712 -44 29 C-44 29.66 -44 30.32 -44 31 C-50.15234375 31.87890625 -50.15234375 31.87890625 -52 32 C-53 31 -53 31 -53.4375 28.6875 C-53 26 -53 26 -50.375 23.9375 C-49.26125 23.298125 -48.1475 22.65875 -47 22 C-45.5459375 20.9790625 -45.5459375 20.9790625 -44.0625 19.9375 C-39.42843151 17.00574239 -35.6095145 15 -30 15 C-30 14.01 -30 13.02 -30 12 C-27.25 10 -27.25 10 -24 8 C-23.0409375 7.195625 -23.0409375 7.195625 -22.0625 6.375 C-20 5 -20 5 -16.5625 4.0625 C-12.81475521 2.94475155 -10.95565651 1.47636086 -8 -1 C-4.64350396 -2.42396802 -3.06906146 -1.86335875 0 0 Z " fill="#6A6A6A" transform="translate(159,72)"/>
<path d="M0 0 C2.375 -0.125 2.375 -0.125 5 0 C5.66 0.66 6.32 1.32 7 2 C6.63318342 4.93453261 6.13562754 5.86437246 4 8 C2.68 8 1.36 8 0 8 C-0.433125 8.928125 -0.433125 8.928125 -0.875 9.875 C-2.61370779 13.15922582 -3.74676888 13.91399698 -7.3125 15.125 C-10.41690935 15.86163951 -12.84523149 16.19119809 -16 16 C-16.33 17.32 -16.66 18.64 -17 20 C-18.65 20.33 -20.3 20.66 -22 21 C-22 21.66 -22 22.32 -22 23 C-22.78375 23.103125 -23.5675 23.20625 -24.375 23.3125 C-27.33045181 23.77595022 -27.33045181 23.77595022 -29 27 C-30.65071396 28.02611949 -32.31970006 29.02308143 -34 30 C-34.825 30.721875 -35.65 31.44375 -36.5 32.1875 C-39 34 -39 34 -41.6875 34.375 C-44 34 -44 34 -46 32 C-45.9375 29.5625 -45.9375 29.5625 -45 27 C-42.75 25.4375 -42.75 25.4375 -40 24 C-39.195625 23.29875 -38.39125 22.5975 -37.5625 21.875 C-35 20 -35 20 -32 19.5625 C-28.03713525 18.81946286 -26.77295674 16.84228066 -24 14 C-22 13.33333333 -20 12.66666667 -18 12 C-17.195625 11.175 -16.39125 10.35 -15.5625 9.5 C-12.4853881 6.49793961 -10.15422407 5.90637616 -6 5 C-5.195625 4.79375 -4.39125 4.5875 -3.5625 4.375 C-3.046875 4.25125 -2.53125 4.1275 -2 4 C-2 3.34 -2 2.68 -2 2 C-1.34 2 -0.68 2 0 2 C0 1.34 0 0.68 0 0 Z " fill="#303030" transform="translate(152,127)"/>
<path d="M0 0 C0.495 2.475 0.495 2.475 1 5 C-0.42859407 6.03325986 -1.86822383 7.05127634 -3.3125 8.0625 C-4.51326172 8.91521484 -4.51326172 8.91521484 -5.73828125 9.78515625 C-6.48464844 10.18605469 -7.23101562 10.58695313 -8 11 C-8.99 10.67 -9.98 10.34 -11 10 C-11.33 10.99 -11.66 11.98 -12 13 C-13.98166034 14.0358679 -15.98473831 15.03112419 -18 16 C-18.825 16.66 -19.65 17.32 -20.5 18 C-24.7703715 21.4162972 -28.44704136 23.48996694 -34 23 C-34 23.99 -34 24.98 -34 26 C-34.886875 26.4125 -35.77375 26.825 -36.6875 27.25 C-40.01963378 28.84745811 -40.01963378 28.84745811 -42.5 31.1875 C-45.55422123 33.40181039 -47.31101364 33.34316152 -51 33 C-52.125 28.25 -52.125 28.25 -51 26 C-50.236875 25.71125 -49.47375 25.4225 -48.6875 25.125 C-45.89810136 24.17991221 -45.89810136 24.17991221 -44.125 21.9375 C-42 20 -42 20 -38.5 19.5625 C-34.08887478 18.85356916 -33.64412355 17.41177232 -31 14 C-27.75 13.1875 -27.75 13.1875 -25 13 C-25 12.34 -25 11.68 -25 11 C-21.82542936 7.90056713 -19.00271532 6.09115594 -14.5625 5.6875 C-13.716875 5.790625 -12.87125 5.89375 -12 6 C-12 5.34 -12 4.68 -12 4 C-8.12515861 0.00773917 -5.46423801 -0.42856769 0 0 Z " fill="#979797" transform="translate(158,99)"/>
<path d="M0 0 C3.875 1.875 3.875 1.875 5 3 C5.07313567 5.53049402 5.09247527 8.03304837 5.0625 10.5625 C5.05798828 11.27341797 5.05347656 11.98433594 5.04882812 12.71679688 C5.03700864 14.47790013 5.01907263 16.23896036 5 18 C5.8971875 18.433125 5.8971875 18.433125 6.8125 18.875 C9 20 9 20 12 22 C12.29296875 25.2578125 12.29296875 25.2578125 12.1875 29.125 C12.16042969 30.40632813 12.13335937 31.68765625 12.10546875 33.0078125 C12.07066406 33.99523437 12.03585938 34.98265625 12 36 C10.68 36.66 9.36 37.32 8 38 C7.01 37.34 6.02 36.68 5 36 C4.875 33.828125 4.875 33.828125 5 31.25 C4.93058644 28.52347097 4.93058644 28.52347097 4 26 C0.65442113 23.30848759 -3.11478758 21.77654896 -7 20 C-9.4310257 18.433339 -11.69084544 16.74469455 -14 15 C-13.34 13.35 -12.68 11.7 -12 10 C-6.25 10.875 -6.25 10.875 -4 12 C-3.96261719 11.30132812 -3.92523438 10.60265625 -3.88671875 9.8828125 C-3.82097656 8.97273438 -3.75523438 8.06265625 -3.6875 7.125 C-3.62949219 6.22007813 -3.57148437 5.31515625 -3.51171875 4.3828125 C-3 2 -3 2 0 0 Z " fill="#B6B6B6" transform="translate(60,86)"/>
<path d="M0 0 C1.2065625 0.0309375 1.2065625 0.0309375 2.4375 0.0625 C2.9325 3.0325 2.9325 3.0325 3.4375 6.0625 C1.4575 7.0525 1.4575 7.0525 -0.5625 8.0625 C-0.5625 8.7225 -0.5625 9.3825 -0.5625 10.0625 C-1.779375 10.371875 -2.99625 10.68125 -4.25 11 C-4.97832031 11.18691406 -5.70664063 11.37382813 -6.45703125 11.56640625 C-8.5625 12.0625 -8.5625 12.0625 -11.4375 12.4375 C-12.13875 12.64375 -12.84 12.85 -13.5625 13.0625 C-13.85769531 13.69285156 -14.15289062 14.32320312 -14.45703125 14.97265625 C-15.79387158 17.49989857 -16.79592174 17.98586601 -19.375 19.125 C-21.85311002 20.26286177 -24.09769218 21.38826915 -26.4375 22.8125 C-28.5625 24.0625 -28.5625 24.0625 -30.5625 24.0625 C-30.5625 24.7225 -30.5625 25.3825 -30.5625 26.0625 C-33.4375 26.6875 -33.4375 26.6875 -36.5625 27.0625 C-37.2225 26.4025 -37.8825 25.7425 -38.5625 25.0625 C-38.5625 23.25 -38.5625 23.25 -37.5625 21.0625 C-33.66942788 17.25996444 -30.76675188 15.71839833 -25.5625 14.0625 C-24.9025 13.0725 -24.2425 12.0825 -23.5625 11.0625 C-22.655 10.77375 -21.7475 10.485 -20.8125 10.1875 C-17.53221049 9.05201517 -15.76372559 7.59274662 -13.21484375 5.30078125 C-10.30384205 3.11925043 -6.98669725 2.22324483 -3.5625 1.0625 C-2.5625 0.0625 -2.5625 0.0625 0 0 Z " fill="#2F2F2F" transform="translate(149.5625,87.9375)"/>
<path d="M0 0 C0.75 2.25 0.75 2.25 1 5 C-1.11232509 8.04174813 -2.53279707 8.87852724 -6.125 9.8125 C-9 10 -9 10 -11 9 C-11 9.99 -11 10.98 -11 12 C-11.66 12 -12.32 12 -13 12 C-13 12.66 -13 13.32 -13 14 C-14.4562545 14.67119549 -15.91507867 15.33681807 -17.375 16 C-18.18710938 16.37125 -18.99921875 16.7425 -19.8359375 17.125 C-22 18 -22 18 -24 18 C-24 18.66 -24 19.32 -24 20 C-24.66 20 -25.32 20 -26 20 C-26 20.66 -26 21.32 -26 22 C-34.03501094 26.07877462 -34.03501094 26.07877462 -38.0625 25.75 C-38.701875 25.5025 -39.34125 25.255 -40 25 C-40.75 23.25 -40.75 23.25 -41 21 C-38.2183717 16.7613283 -33.87071281 15.69569701 -29.33203125 14.0078125 C-26.56776012 12.81320287 -24.99930844 11.22145382 -23 9 C-20.3125 7.8125 -20.3125 7.8125 -18 7 C-17.67 6.67 -17.34 6.34 -17 6 C-15.33382885 5.95936168 -13.66611905 5.957279 -12 6 C-11.773125 5.38125 -11.54625 4.7625 -11.3125 4.125 C-8.71848972 -0.07482617 -4.60793369 -0.2633105 0 0 Z " fill="#B8B8B8" transform="translate(152,117)"/>
<path d="M0 0 C1.98 0 3.96 0 6 0 C7.20272819 2.40545638 7.10071472 3.94996953 7.0625 6.625 C7.05347656 7.44226563 7.04445313 8.25953125 7.03515625 9.1015625 C7.02355469 9.72804688 7.01195312 10.35453125 7 11 C7.71929687 11.268125 8.43859375 11.53625 9.1796875 11.8125 C12.01008058 13.00424446 14.50717835 14.39888584 17.125 16 C17.97320312 16.515625 18.82140625 17.03125 19.6953125 17.5625 C21.4830896 18.67758809 23.24684645 19.83123097 25 21 C25.25 23.5625 25.25 23.5625 25 26 C24 27 24 27 21.76953125 27.265625 C18.28709001 26.93162499 16.55683183 25.72655854 13.6875 23.75 C10.31877916 21.49354964 7.03994404 19.42422123 3.375 17.6875 C0 16 0 16 -1 14 C-1.09611752 12.37731009 -1.12982352 10.75052694 -1.125 9.125 C-1.12757812 8.26132813 -1.13015625 7.39765625 -1.1328125 6.5078125 C-1.01023921 4.19334029 -0.64966445 2.21710884 0 0 Z " fill="#9B9B9B" transform="translate(47,108)"/>
<path d="M0 0 C0.66 0.33 1.32 0.66 2 1 C1.83701416 2.11890625 1.67402832 3.2378125 1.50610352 4.390625 C0.90904958 9.18864544 0.87320945 13.92069803 0.90234375 18.75 C0.9037587 19.64871826 0.90517365 20.54743652 0.90663147 21.47338867 C0.91218417 24.31562775 0.92472763 27.15778513 0.9375 30 C0.94252112 31.93880094 0.94708295 33.87760312 0.95117188 35.81640625 C0.96213806 40.54430183 0.97936956 45.27213711 1 50 C5.05573954 51.35433983 5.05573954 51.35433983 9.1171875 52.69140625 C11.5367554 53.89043657 12.55400873 54.66964884 14 57 C14.90181702 62.60425168 14.39125896 68.36711305 14 74 C11.525 74.99 11.525 74.99 9 76 C7 74 7 74 6.8046875 70.9609375 C6.82789063 69.77757813 6.85109375 68.59421875 6.875 67.375 C6.89304687 66.18648438 6.91109375 64.99796875 6.9296875 63.7734375 C6.95289063 62.85820313 6.97609375 61.94296875 7 61 C6.01 60.67 5.02 60.34 4 60 C4.99 58.35 5.98 56.7 7 55 C6.43197159 54.76867371 5.86394318 54.53734741 5.27870178 54.29901123 C2.80696733 53.07764498 0.97287199 51.93598945 -1 50 C-2.1465059 46.28050748 -1.95774292 42.69138958 -1.81640625 38.828125 C-1.80745834 37.74996521 -1.79851044 36.67180542 -1.78929138 35.56097412 C-1.75118687 32.12225579 -1.65693387 28.68758516 -1.5625 25.25 C-1.53094314 22.92061845 -1.5029071 20.59118635 -1.47851562 18.26171875 C-1.42000487 14.01792876 -1.35369641 9.77494156 -1.24047852 5.53222656 C-1.21856949 4.67904846 -1.19666046 3.82587036 -1.17408752 2.94683838 C-1 1 -1 1 0 0 Z " fill="#777777" transform="translate(26,53)"/>
<path d="M0 0 C1.65 0.33 3.3 0.66 5 1 C5 17.17 5 33.34 5 50 C4.01 50 3.02 50 2 50 C2.32145996 50.50756836 2.64291992 51.01513672 2.97412109 51.53808594 C4.33550357 54.8051447 4.35479731 57.90529432 4.4140625 61.390625 C4.43342865 62.09523865 4.4527948 62.79985229 4.4727478 63.52581787 C4.53232735 65.76709039 4.57884123 68.00841489 4.625 70.25 C4.66319979 71.77345938 4.70225269 73.29689762 4.7421875 74.8203125 C4.83801018 78.54668106 4.92212107 82.27320835 5 86 C8.02266703 85.40348694 11.01725858 84.77330333 14 84 C12.375 86 12.375 86 10 88 C6.8125 88.3125 6.8125 88.3125 4 88 C3 87 3 87 2.88647461 84.04077148 C2.89171143 82.74727783 2.89694824 81.45378418 2.90234375 80.12109375 C2.9037587 79.4344313 2.90517365 78.74776886 2.90663147 78.04029846 C2.91224521 75.83932199 2.92479993 73.63844591 2.9375 71.4375 C2.94251324 69.94856917 2.94707645 68.45963676 2.95117188 66.97070312 C2.96221907 63.31376925 2.97949287 59.65689442 3 56 C2.34 56 1.68 56 1 56 C1 55.34 1 54.68 1 54 C-0.1446875 53.8453125 -0.1446875 53.8453125 -1.3125 53.6875 C-4.17059424 52.95635961 -5.15742885 52.23048087 -7 50 C-4.69 50.33 -2.38 50.66 0 51 C0 50.01 0 49.02 0 48 C-1.32 47.34 -2.64 46.68 -4 46 C-4 33.13 -4 20.26 -4 7 C-3.67 7 -3.34 7 -3 7 C-2.82748711 9.97892801 -2.66133431 12.95795847 -2.5 15.9375 C-2.4494043 16.83525146 -2.39880859 17.73300293 -2.34667969 18.65795898 C-2.11553499 23.12085991 -1.96991967 27.53987838 -2.109375 32.0078125 C-2.13064453 32.77746338 -2.15191406 33.54711426 -2.17382812 34.34008789 C-2.22372557 35.79590986 -2.29457905 37.25119926 -2.38867188 38.70483398 C-2.51612249 40.91948733 -2.51612249 40.91948733 -2 44 C-0.35 44.99 1.3 45.98 3 47 C3 32.15 3 17.3 3 2 C2.01 1.67 1.02 1.34 0 1 C0 0.67 0 0.34 0 0 Z " fill="#353535" transform="translate(89,94)"/>
<path d="M0 0 C0 26.4 0 52.8 0 80 C-2.475 80.495 -2.475 80.495 -5 81 C-5.309375 81.639375 -5.61875 82.27875 -5.9375 82.9375 C-7 85 -7 85 -9.875 86.1875 C-11.421875 86.5896875 -11.421875 86.5896875 -13 87 C-14.175625 87.309375 -14.175625 87.309375 -15.375 87.625 C-15.91125 87.74875 -16.4475 87.8725 -17 88 C-13.44005237 83.82093105 -8.91336946 81.31440569 -4 79 C-3.34 79 -2.68 79 -2 79 C-2 53.92 -2 28.84 -2 3 C-9.00967718 7.20274614 -9.00967718 7.20274614 -16 11.4375 C-17.485 12.2109375 -17.485 12.2109375 -19 13 C-19.66 12.67 -20.32 12.34 -21 12 C-19.16800182 10.85932189 -17.33598766 9.71866942 -15.50390625 8.578125 C-13.69068018 7.43531169 -11.88717039 6.27703419 -10.08984375 5.109375 C-9.11144531 4.47515625 -8.13304687 3.8409375 -7.125 3.1875 C-6.19945312 2.58292969 -5.27390625 1.97835937 -4.3203125 1.35546875 C-2 0 -2 0 0 0 Z " fill="#565656" transform="translate(167,56)"/>
<path d="M0 0 C6.06824286 0.26131189 10.70760663 3.32530653 15.8125 6.3125 C16.68326172 6.79912109 17.55402344 7.28574219 18.45117188 7.78710938 C19.27810547 8.26599609 20.10503906 8.74488281 20.95703125 9.23828125 C21.70960205 9.67180908 22.46217285 10.10533691 23.23754883 10.55200195 C25 12 25 12 25.87768555 14.04760742 C25.91804932 14.69189697 25.95841309 15.33618652 26 16 C25.34 16.66 24.68 17.32 24 18 C17.52992329 17.90007604 12.96754281 15.0862311 7.5625 11.75 C6.73556641 11.27175781 5.90863281 10.79351562 5.05664062 10.30078125 C4.27611328 9.82511719 3.49558594 9.34945312 2.69140625 8.859375 C1.98185791 8.43108398 1.27230957 8.00279297 0.54125977 7.56152344 C-1 6 -1 6 -1.29321289 3.38378906 C-1 1 -1 1 0 0 Z " fill="#9B9B9B" transform="translate(60,140)"/>
<path d="M0 0 C2.0625 0.4375 2.0625 0.4375 4 1 C4.00410889 2.16571533 4.00821777 3.33143066 4.01245117 4.5324707 C4.03421176 8.85469877 4.08846863 13.17601248 4.15258789 17.49780273 C4.1757949 19.36880738 4.19016995 21.23994317 4.19555664 23.11108398 C4.20482682 25.80015028 4.24577159 28.48714645 4.29296875 31.17578125 C4.2890361 32.01337479 4.28510345 32.85096832 4.28105164 33.71394348 C4.29183617 36.35286023 4.29183617 36.35286023 5 40 C7.37761808 42.13068006 7.37761808 42.13068006 10 43 C9.67 44.32 9.34 45.64 9 47 C5.1614522 46.46686836 2.64739083 45.90095643 0 43 C-0.65125071 39.86563123 -0.62904528 36.74744043 -0.64453125 33.5546875 C-0.66343918 32.62907013 -0.68234711 31.70345276 -0.701828 30.74978638 C-0.7383245 28.79476578 -0.76545925 26.83955128 -0.78393555 24.88427734 C-0.81245966 21.87924937 -0.86750582 18.875638 -0.92773438 15.87109375 C-0.95987165 13.97398377 -0.99052189 12.07684789 -1.01953125 10.1796875 C-1.0340181 9.27556122 -1.04850494 8.37143494 -1.06343079 7.43991089 C-1.08199008 5.29325003 -1.04663403 3.14623451 -1 1 C-0.67 0.67 -0.34 0.34 0 0 Z " fill="#F7F7F7" transform="translate(80,99)"/>
<path d="M0 0 C0 1.65 0 3.3 0 5 C-0.99 5.33 -1.98 5.66 -3 6 C-3.33 6.99 -3.66 7.98 -4 9 C-4.78375 9.103125 -5.5675 9.20625 -6.375 9.3125 C-9.33045181 9.77595022 -9.33045181 9.77595022 -11 13 C-12.65071396 14.02611949 -14.31970006 15.02308143 -16 16 C-16.825 16.721875 -17.65 17.44375 -18.5 18.1875 C-21 20 -21 20 -23.6875 20.375 C-26 20 -26 20 -28 18 C-27.9375 15.5625 -27.9375 15.5625 -27 13 C-24.75 11.4375 -24.75 11.4375 -22 10 C-21.236875 9.319375 -20.47375 8.63875 -19.6875 7.9375 C-16.69215577 5.77806579 -14.46520628 5.30295619 -10.921875 4.5703125 C-6.10442461 3.14074389 -5.41696444 0 0 0 Z " fill="#8F8F8F" transform="translate(134,141)"/>
<path d="M0 0 C0 16.83 0 33.66 0 51 C-1.98 51.495 -1.98 51.495 -4 52 C-4 35.17 -4 18.34 -4 1 C-2 0 -2 0 0 0 Z " fill="#F8F8F8" transform="translate(25,51)"/>
<path d="M0 0 C3.4675626 0.66561896 6.06690974 2.04734562 9.09765625 3.8359375 C10.06380859 4.40570313 11.02996094 4.97546875 12.02539062 5.5625 C13.52875977 6.4596875 13.52875977 6.4596875 15.0625 7.375 C16.06861328 7.96539063 17.07472656 8.55578125 18.11132812 9.1640625 C26.1219113 13.91583128 26.1219113 13.91583128 29 17 C29.5775 17.45375 30.155 17.9075 30.75 18.375 C32 20 32 20 31.6875 22.6875 C31.3471875 23.8321875 31.3471875 23.8321875 31 25 C25.75388214 23.53957217 21.69987069 21.12161533 17.1875 18.1875 C15.77582196 17.28606313 14.36306716 16.3863102 12.94921875 15.48828125 C12.27294434 15.05854004 11.59666992 14.62879883 10.89990234 14.18603516 C7.34791579 11.96866807 3.68971515 9.97663312 0 8 C1.32 7.67 2.64 7.34 4 7 C4 7.66 4 8.32 4 9 C5.65 9.33 7.3 9.66 9 10 C9.33 9.01 9.66 8.02 10 7 C9.278125 6.57847656 8.55625 6.15695313 7.8125 5.72265625 C6.884375 5.17480469 5.95625 4.62695312 5 4.0625 C4.071875 3.51722656 3.14375 2.97195312 2.1875 2.41015625 C1.465625 1.94480469 0.74375 1.47945312 0 1 C0 0.67 0 0.34 0 0 Z " fill="#9A9A9A" transform="translate(126,24)"/>
<path d="M0 0 C1.485 0.495 1.485 0.495 3 1 C1.23158577 2.10803692 -0.53998976 3.21102726 -2.3125 4.3125 C-3.12421661 4.85188957 -3.12421661 4.85188957 -3.95233154 5.4021759 C-7.5086766 7.7019908 -10.8171253 9.34814255 -14.86303711 10.62255859 C-20.5858568 12.6775496 -25.38745356 14.94976204 -29 20 C-32.10445889 30.48375795 -30.91570917 42.0630538 -30.36291504 52.85491943 C-30.17504507 56.94388396 -30.10139013 61.03480884 -30.015625 65.12695312 C-29.87313375 71.10999277 -29.69033345 77.08912798 -29.41503906 83.06762695 C-29.35995178 84.26466751 -29.3048645 85.46170807 -29.24810791 86.69502258 C-29.0113465 89.84885637 -28.57411202 92.89155704 -28 96 C-29.485 96.495 -29.485 96.495 -31 97 C-31 70.93 -31 44.86 -31 18 C-22.09 13.05 -13.18 8.1 -4 3 C-2.68 2.01 -1.36 1.02 0 0 Z " fill="#363636" transform="translate(129,77)"/>
<path d="M0 0 C3.40312738 1.05875074 6.01353231 2.00902154 9 4 C9.29296875 6.3828125 9.29296875 6.3828125 9.1875 9.125 C9.16042969 10.03507812 9.13335937 10.94515625 9.10546875 11.8828125 C9.07066406 12.58148438 9.03585938 13.28015625 9 14 C4.49220966 12.57070062 0.38738988 10.88030995 -4 9 C-4 17.91 -4 26.82 -4 36 C-3.01 36 -2.02 36 -1 36 C-1 29.07 -1 22.14 -1 15 C-0.01 15 0.98 15 2 15 C2 15.66 2 16.32 2 17 C2.639375 17.12375 3.27875 17.2475 3.9375 17.375 C4.618125 17.58125 5.29875 17.7875 6 18 C6.33 18.66 6.66 19.32 7 20 C5.02 19.34 3.04 18.68 1 18 C1.02320313 19.27617188 1.04640625 20.55234375 1.0703125 21.8671875 C1.08906829 23.5364525 1.10726869 25.2057238 1.125 26.875 C1.14175781 27.71675781 1.15851562 28.55851562 1.17578125 29.42578125 C1.18222656 30.23144531 1.18867187 31.03710938 1.1953125 31.8671875 C1.20578613 32.61081543 1.21625977 33.35444336 1.22705078 34.12060547 C1 36 1 36 -1 38 C-2.32 38 -3.64 38 -5 38 C-6.38308781 35.23382437 -6.11210196 32.98982 -6.09765625 29.8984375 C-6.09443359 28.68671875 -6.09121094 27.475 -6.08789062 26.2265625 C-6.07951172 24.95554687 -6.07113281 23.68453125 -6.0625 22.375 C-6.05798828 21.09625 -6.05347656 19.8175 -6.04882812 18.5 C-6.03701203 15.33328708 -6.02053815 12.16666644 -6 9 C-4.13378906 7.95751953 -4.13378906 7.95751953 -2 7 C0.140625 7.6796875 0.140625 7.6796875 2.25 8.875 C2.95640625 9.26429687 3.6628125 9.65359375 4.390625 10.0546875 C4.92171875 10.36664063 5.4528125 10.67859375 6 11 C6.33 9.35 6.66 7.7 7 6 C6.4946875 5.65066406 5.989375 5.30132812 5.46875 4.94140625 C4.8190625 4.48636719 4.169375 4.03132813 3.5 3.5625 C2.8503125 3.11003906 2.200625 2.65757813 1.53125 2.19140625 C1.0259375 1.79824219 0.520625 1.40507813 0 1 C0 0.67 0 0.34 0 0 Z " fill="#747474" transform="translate(39,65)"/>
<path d="M0 0 C0 1.32 0 2.64 0 4 C-2.1875 5.4375 -2.1875 5.4375 -5 7 C-6.2065625 8.2684375 -6.2065625 8.2684375 -7.4375 9.5625 C-10.24620651 12.23419643 -12.32863393 12.93938314 -16 14 C-16.66 14.66 -17.32 15.32 -18 16 C-20.65537372 16.56520003 -23.29144713 16.73788198 -26 17 C-26.33 15.68 -26.66 14.36 -27 13 C-26.278125 12.5875 -25.55625 12.175 -24.8125 11.75 C-21.97171516 10.08502636 -21.97171516 10.08502636 -19.625 7.9375 C-16.52407029 5.64871855 -13.68499746 5.05285642 -10 4 C-9.13375 3.29875 -8.2675 2.5975 -7.375 1.875 C-4.63674544 -0.28677991 -3.39682043 -0.38820805 0 0 Z " fill="#ECECEC" transform="translate(157,72)"/>
<path d="M0 0 C0 1.32 0 2.64 0 4 C-0.78375 4.2475 -1.5675 4.495 -2.375 4.75 C-5.11300841 5.70417218 -5.11300841 5.70417218 -5.83203125 7.87890625 C-7.44279231 10.80413454 -9.38152372 11.64467216 -12.3125 13.1875 C-13.25738281 13.69667969 -14.20226563 14.20585938 -15.17578125 14.73046875 C-17.82618776 15.92186863 -20.13850517 16.56738785 -23 17 C-23 16.01 -23 15.02 -23 14 C-24.32 14.33 -25.64 14.66 -27 15 C-27 14.34 -27 13.68 -27 13 C-23.23860655 10.33349625 -19.17489455 8.12314402 -15.1875 5.8125 C-14.06794922 5.14541016 -12.94839844 4.47832031 -11.79492188 3.79101562 C-10.72177734 3.16517578 -9.64863281 2.53933594 -8.54296875 1.89453125 C-7.0583313 1.02598511 -7.0583313 1.02598511 -5.54370117 0.13989258 C-3 -1 -3 -1 0 0 Z " fill="#C2C2C2" transform="translate(48,37)"/>
<path d="M0 0 C0.66 0.33 1.32 0.66 2 1 C0.90241493 1.84198307 -0.20335317 2.67330671 -1.3125 3.5 C-1.92738281 3.9640625 -2.54226562 4.428125 -3.17578125 4.90625 C-5 6 -5 6 -8 6 C-9.11306209 8.14661975 -10.07474168 10.21354765 -10.875 12.5 C-13.58308678 18.51797063 -19.2572823 21.28029743 -25 24 C-26.32259354 24.37367797 -27.65411436 24.72164638 -29 25 C-27.625 23.5 -27.625 23.5 -26 22 C-25.34 22 -24.68 22 -24 22 C-24.33 20.68 -24.66 19.36 -25 18 C-27.31 18.66 -29.62 19.32 -32 20 C-32 19.34 -32 18.68 -32 18 C-27.60546875 15.55859375 -23.2109375 13.1171875 -18.81640625 10.67578125 C-18.02516357 10.23588867 -17.2339209 9.79599609 -16.41870117 9.34277344 C-14.77930757 8.43264274 -13.13880863 7.52450072 -11.49731445 6.61816406 C-10.30368286 5.9583252 -10.30368286 5.9583252 -9.0859375 5.28515625 C-8.37099121 4.89078369 -7.65604492 4.49641113 -6.91943359 4.09008789 C-5.27004124 3.15336227 -3.66137702 2.1455598 -2.0625 1.125 C-1.381875 0.75375 -0.70125 0.3825 0 0 Z " fill="#878787" transform="translate(72,19)"/>
<path d="M0 0 C0.33 0 0.66 0 1 0 C1 1.65 1 3.3 1 5 C2.32 5.33 3.64 5.66 5 6 C3.35 6 1.7 6 0 6 C0 6.99 0 7.98 0 9 C-0.886875 9.4125 -1.77375 9.825 -2.6875 10.25 C-6.01963378 11.84745811 -6.01963378 11.84745811 -8.5 14.1875 C-11.55422123 16.40181039 -13.31101364 16.34316152 -17 16 C-18.125 11.25 -18.125 11.25 -17 9 C-16.236875 8.71125 -15.47375 8.4225 -14.6875 8.125 C-11.89810136 7.17991221 -11.89810136 7.17991221 -10.125 4.9375 C-7.25853626 2.32395953 -4.7749496 2.42735278 -1 2 C-0.67 1.34 -0.34 0.68 0 0 Z " fill="#343434" transform="translate(124,116)"/>
<path d="M0 0 C3.4050149 0.67152266 6.04396413 1.99374129 9.0625 3.6875 C10.49722656 4.48607422 10.49722656 4.48607422 11.9609375 5.30078125 C12.96382812 5.86152344 13.96671875 6.42226562 15 7 C17.06123443 8.1273171 19.1236767 9.25242945 21.1875 10.375 C22.79166667 11.25 24.39583333 12.125 26 13 C26 13.66 26 14.32 26 15 C25.01 15.33 24.02 15.66 23 16 C23 16.99 23 17.98 23 19 C23.639375 19.103125 24.27875 19.20625 24.9375 19.3125 C25.618125 19.539375 26.29875 19.76625 27 20 C27.33 20.99 27.66 21.98 28 23 C23.23448987 21.62394084 19.2751447 19.53221934 15.125 16.875 C14.53203125 16.50246094 13.9390625 16.12992188 13.328125 15.74609375 C11.8818657 14.83635 10.44041954 13.91896202 9 13 C10.32 11.68 11.64 10.36 13 9 C12.0615625 8.43410156 11.123125 7.86820312 10.15625 7.28515625 C8.93738441 6.54446101 7.71864065 5.80356526 6.5 5.0625 C5.87996094 4.68931641 5.25992188 4.31613281 4.62109375 3.93164062 C3.06370003 2.9818016 1.5296725 1.99386689 0 1 C0 0.67 0 0.34 0 0 Z " fill="#CCCCCC" transform="translate(61,71)"/>
<path d="M0 0 C5.14808788 1.02961758 7.62920538 2.34324249 12 5 C11.67 5.99 11.34 6.98 11 8 C9.35 8 7.7 8 6 8 C6 7.34 6 6.68 6 6 C5.01 6 4.02 6 3 6 C3 12.93 3 19.86 3 27 C2.01 27 1.02 27 0 27 C0 18.09 0 9.18 0 0 Z " fill="#FBFBFB" transform="translate(35,74)"/>
<path d="M0 0 C0.33 1.32 0.66 2.64 1 4 C-1.95105384 5.7004792 -4.91190122 7.38311093 -7.875 9.0625 C-8.71675781 9.54783203 -9.55851562 10.03316406 -10.42578125 10.53320312 C-11.23144531 10.98759766 -12.03710938 11.44199219 -12.8671875 11.91015625 C-13.61081543 12.33433838 -14.35444336 12.75852051 -15.12060547 13.19555664 C-16.05090576 13.5937561 -16.05090576 13.5937561 -17 14 C-17.66 13.67 -18.32 13.34 -19 13 C-19 12.34 -19 11.68 -19 11 C-20.32 10.67 -21.64 10.34 -23 10 C-6.56164384 0 -6.56164384 0 0 0 Z " fill="#B4B4B4" transform="translate(124,161)"/>
<path d="M0 0 C0.75 2.25 0.75 2.25 1 5 C-1.11232509 8.04174813 -2.53279707 8.87852724 -6.125 9.8125 C-9 10 -9 10 -11 9 C-11 9.99 -11 10.98 -11 12 C-11.66 11.67 -12.32 11.34 -13 11 C-12.67 9.68 -12.34 8.36 -12 7 C-12.680625 7.28875 -13.36125 7.5775 -14.0625 7.875 C-17.32893093 9.12597355 -20.62846123 10.07447955 -24 11 C-22.60683123 8.21366246 -20.84019484 8.06507306 -18 7 C-17.67 6.67 -17.34 6.34 -17 6 C-15.33382885 5.95936168 -13.66611905 5.957279 -12 6 C-11.773125 5.38125 -11.54625 4.7625 -11.3125 4.125 C-8.71848972 -0.07482617 -4.60793369 -0.2633105 0 0 Z " fill="#2C2C2C" transform="translate(152,117)"/>
<path d="M0 0 C1.2065625 0.0309375 1.2065625 0.0309375 2.4375 0.0625 C3.0625 2.9375 3.0625 2.9375 3.4375 6.0625 C1.04299427 8.45700573 -0.15346236 8.51678455 -3.4375 9.0625 C-6.84533853 9.63216853 -9.53736941 10.37405502 -12.5625 12.0625 C-13.3125 10.375 -13.3125 10.375 -13.5625 8.0625 C-10.93399595 3.6466132 -8.4405786 2.36332096 -3.5625 1.0625 C-2.5625 0.0625 -2.5625 0.0625 0 0 Z " fill="#DDDDDD" transform="translate(149.5625,87.9375)"/>
<path d="M0 0 C0.33 1.65 0.66 3.3 1 5 C-0.42859407 6.03325986 -1.86822383 7.05127634 -3.3125 8.0625 C-4.11300781 8.63097656 -4.91351563 9.19945313 -5.73828125 9.78515625 C-6.85783203 10.38650391 -6.85783203 10.38650391 -8 11 C-8.99 10.67 -9.98 10.34 -11 10 C-11.33 10.66 -11.66 11.32 -12 12 C-12.33 10.68 -12.66 9.36 -13 8 C-14.98 8 -16.96 8 -19 8 C-18.67 7.34 -18.34 6.68 -18 6 C-16.02 6 -14.04 6 -12 6 C-12 5.34 -12 4.68 -12 4 C-8.12515861 0.00773917 -5.46423801 -0.42856769 0 0 Z " fill="#2F2F2F" transform="translate(158,99)"/>
<path d="M0 0 C-0.1875 2.3125 -0.1875 2.3125 -1 5 C-3.375 6.625 -3.375 6.625 -6 8 C-7.75149165 9.58245275 -7.75149165 9.58245275 -9 11 C-9.99 10.67 -10.98 10.34 -12 10 C-10.90398831 8.99106869 -9.79786082 7.99311775 -8.6875 7 C-8.07261719 6.443125 -7.45773438 5.88625 -6.82421875 5.3125 C-5 4 -5 4 -2 4 C-2 2.68 -2 1.36 -2 0 C-6.97872129 1.07606611 -6.97872129 1.07606611 -11 4 C-13 6 -13 6 -16.375 6.9375 C-19.70855522 7.91457653 -20.79529587 8.44507618 -23.25 10.625 C-26 13 -26 13 -29 13 C-28.67 13.99 -28.34 14.98 -28 16 C-26.02 16 -24.04 16 -22 16 C-22.33 16.66 -22.66 17.32 -23 18 C-23.7425 18.103125 -24.485 18.20625 -25.25 18.3125 C-28.9303652 19.2325913 -30.5094901 21.2248604 -33 24 C-33.66 23.67 -34.32 23.34 -35 23 C-34.360625 22.5875 -33.72125 22.175 -33.0625 21.75 C-30.79009069 19.82189513 -30.39803561 18.88575819 -30 16 C-31.32 15.67 -32.64 15.34 -34 15 C-32.68 15 -31.36 15 -30 15 C-30 14.01 -30 13.02 -30 12 C-27.25 10 -27.25 10 -24 8 C-23.360625 7.46375 -22.72125 6.9275 -22.0625 6.375 C-20 5 -20 5 -16.5625 4.0625 C-12.81475521 2.94475155 -10.95565651 1.47636086 -8 -1 C-4.64350396 -2.42396802 -3.06906146 -1.86335875 0 0 Z " fill="#292929" transform="translate(159,72)"/>
<path d="M0 0 C1.65 0.33 3.3 0.66 5 1 C5 1.99 5 2.98 5 4 C-0.94 7.3 -6.88 10.6 -13 14 C-14 11 -14 11 -13.375 9 C-10.94146735 5.46031615 -7.74856504 4.24472319 -3.75 2.9375 C-0.86381294 2.31285945 -0.86381294 2.31285945 0 0 Z " fill="#EDEDED" transform="translate(162,137)"/>
<path d="M0 0 C2.0625 0.4375 2.0625 0.4375 4 1 C3.62283663 3.38294395 3.38618584 4.66106133 1.54125977 6.28027344 C0.93080811 6.63637695 0.32035645 6.99248047 -0.30859375 7.359375 C-0.97310547 7.75253906 -1.63761719 8.14570313 -2.32226562 8.55078125 C-3.36930664 9.14439453 -3.36930664 9.14439453 -4.4375 9.75 C-5.13166016 10.16121094 -5.82582031 10.57242187 -6.54101562 10.99609375 C-11.69555907 14 -11.69555907 14 -14 14 C-13.39343245 10.6032217 -12.24648654 8.60833672 -10 6 C-7.7734375 4.55078125 -7.7734375 4.55078125 -5.375 3.3125 C-2.49541482 1.92283432 -2.49541482 1.92283432 0 0 Z " fill="#EDEDED" transform="translate(74,19)"/>
<path d="M0 0 C0.99 0.33 1.98 0.66 3 1 C3 2.32 3 3.64 3 5 C-0.96 6.98 -0.96 6.98 -5 9 C-5.33 8.01 -5.66 7.02 -6 6 C-9.74791308 7.52976044 -13.15686162 9.06066104 -16.5625 11.25 C-20 13 -20 13 -23.25 12.9375 C-25.99335704 12.00226465 -27.23500989 11.25526514 -29 9 C-27.9275 9.474375 -26.855 9.94875 -25.75 10.4375 C-22.48624608 11.28237247 -21.20045159 11.09057839 -18.078125 9.6796875 C-16.0069888 8.42333838 -13.95354065 7.13740772 -11.91796875 5.82421875 C-8.37290908 3.60796324 -4.94214761 2.33884258 -1 1 C-0.67 0.67 -0.34 0.34 0 0 Z " fill="#9B9B9B" transform="translate(118,78)"/>
<path d="M0 0 C0.99 0.33 1.98 0.66 3 1 C1.68 1.33 0.36 1.66 -1 2 C-1 6.29 -1 10.58 -1 15 C-3.64 14.34 -6.28 13.68 -9 13 C-9.33 13.66 -9.66 14.32 -10 15 C-9.01 15.33 -8.02 15.66 -7 16 C-7.33 16.66 -7.66 17.32 -8 18 C-5.525 18.99 -5.525 18.99 -3 20 C-3.66 20.33 -4.32 20.66 -5 21 C-7.97 19.02 -10.94 17.04 -14 15 C-13.34 13.35 -12.68 11.7 -12 10 C-6.25 10.875 -6.25 10.875 -4 12 C-3.96261719 11.30132812 -3.92523438 10.60265625 -3.88671875 9.8828125 C-3.82097656 8.97273438 -3.75523438 8.06265625 -3.6875 7.125 C-3.62949219 6.22007813 -3.57148437 5.31515625 -3.51171875 4.3828125 C-3 2 -3 2 0 0 Z " fill="#686868" transform="translate(60,86)"/>
<path d="M0 0 C-0.99 0.495 -0.99 0.495 -2 1 C-2 1.66 -2 2.32 -2 3 C-3.97946592 4.36363208 -5.9819245 5.69418644 -8 7 C-8.7115625 7.86625 -8.7115625 7.86625 -9.4375 8.75 C-12.0377955 10.8302364 -14.81172163 10.18046859 -18 10 C-17.8125 8.1875 -17.8125 8.1875 -17 6 C-14.6875 4.4375 -14.6875 4.4375 -12 3 C-11.401875 2.443125 -10.80375 1.88625 -10.1875 1.3125 C-6.81190009 -0.71285995 -3.89084472 -0.19454224 0 0 Z " fill="#EBEBEB" transform="translate(125,92)"/>
<path d="M0 0 C-0.56629694 3.28452224 -1.28652164 5.01011587 -4 7 C-8.38955058 8.62575948 -11.47446826 9.37137326 -16 8 C-14.63016497 4.83884224 -14.0109362 4.0072908 -11 2 C-7.0967901 0.72258585 -4.12760017 0 0 0 Z " fill="#EDEDED" transform="translate(151,133)"/>
<path d="M0 0 C3.40312738 1.05875074 6.01353231 2.00902154 9 4 C9.29296875 6.3828125 9.29296875 6.3828125 9.1875 9.125 C9.16042969 10.03507812 9.13335937 10.94515625 9.10546875 11.8828125 C9.07066406 12.58148438 9.03585938 13.28015625 9 14 C5.59687262 12.94124926 2.98646769 11.99097846 0 10 C-1.32 10 -2.64 10 -4 10 C-4.33 18.58 -4.66 27.16 -5 36 C-5.33 36 -5.66 36 -6 36 C-6 27.09 -6 18.18 -6 9 C-2 7 -2 7 0.140625 7.6796875 C0.83671875 8.07414062 1.5328125 8.46859375 2.25 8.875 C2.95640625 9.26429687 3.6628125 9.65359375 4.390625 10.0546875 C4.92171875 10.36664063 5.4528125 10.67859375 6 11 C6.33 9.35 6.66 7.7 7 6 C6.4946875 5.65066406 5.989375 5.30132812 5.46875 4.94140625 C4.8190625 4.48636719 4.169375 4.03132813 3.5 3.5625 C2.8503125 3.11003906 2.200625 2.65757813 1.53125 2.19140625 C1.0259375 1.79824219 0.520625 1.40507813 0 1 C0 0.67 0 0.34 0 0 Z " fill="#202020" transform="translate(39,65)"/>
<path d="M0 0 C1.32 0 2.64 0 4 0 C3.67 2.31 3.34 4.62 3 7 C-5.03571429 9.27678571 -5.03571429 9.27678571 -9 8 C-8.9375 6.1875 -8.9375 6.1875 -8 4 C-4.5 2.3125 -4.5 2.3125 -1 1 C-0.67 0.67 -0.34 0.34 0 0 Z " fill="#DADADA" transform="translate(136,124)"/>
<path d="M0 0 C0 1.32 0 2.64 0 4 C-1.5778125 4.61875 -1.5778125 4.61875 -3.1875 5.25 C-6.60131925 6.69139035 -9.11459351 8.67564477 -12 11 C-12.99 11 -13.98 11 -15 11 C-15 9.35 -15 7.7 -15 6 C-12.36 5.34 -9.72 4.68 -7 4 C-7 2.68 -7 1.36 -7 0 C-4.3333581 -1.33332095 -2.83319697 -0.67102033 0 0 Z " fill="#E7E7E7" transform="translate(146,107)"/>
<path d="M0 0 C1.36125 0.12375 1.36125 0.12375 2.75 0.25 C2.75 1.57 2.75 2.89 2.75 4.25 C2.0075 4.4975 1.265 4.745 0.5 5 C-2.34771111 6.08463706 -2.34771111 6.08463706 -4.25 8.375 C-6.25 10.25 -6.25 10.25 -9 10.5 C-9.7425 10.4175 -10.485 10.335 -11.25 10.25 C-11.58 8.93 -11.91 7.61 -12.25 6.25 C-11.5075 6.0025 -10.765 5.755 -10 5.5 C-7.15288795 4.42370747 -7.15288795 4.42370747 -5.3125 2.125 C-3.25 0.25 -3.25 0.25 0 0 Z " fill="#EBEBEB" transform="translate(120.25,119.75)"/>
<path d="M0 0 C2.99634388 1.51859312 5.87182329 3.20719646 8.75 4.9375 C9.52988281 5.39318359 10.30976562 5.84886719 11.11328125 6.31835938 C16.86811514 9.73623029 16.86811514 9.73623029 18 12 C13.02671288 10.22315451 8.68458852 7.49143208 4.25976562 4.65820312 C1.21717908 2.82600073 -0.6665278 1.98597172 -4.25 2.13671875 C-7.63203377 3.19840833 -10.08007593 5.01196659 -13 7 C-15.875 7.75 -15.875 7.75 -18 8 C-15.63041591 5.4290787 -13.08487451 3.60329529 -10.125 1.75 C-8.86042969 0.93789062 -8.86042969 0.93789062 -7.5703125 0.109375 C-4.31986925 -1.29355187 -3.32942963 -1.19725908 0 0 Z " fill="#2A2A2A" transform="translate(99,7)"/>
<path d="M0 0 C0.66 0.33 1.32 0.66 2 1 C1.505 1.433125 1.01 1.86625 0.5 2.3125 C-1.33218192 3.99740483 -1.33218192 3.99740483 -1 7 C-0.505 6.690625 -0.01 6.38125 0.5 6.0625 C3.97986781 4.58355618 7.24028509 4.37597149 11 4 C11 4.66 11 5.32 11 6 C9.783125 6.309375 8.56625 6.61875 7.3125 6.9375 C6.58417969 7.12441406 5.85585937 7.31132813 5.10546875 7.50390625 C3 8 3 8 0.125 8.375 C-2.19269658 8.80351622 -2.19269658 8.80351622 -3.3125 11.0625 C-3.539375 11.701875 -3.76625 12.34125 -4 13 C-4.99 12.67 -5.98 12.34 -7 12 C-6.01 11.67 -5.02 11.34 -4 11 C-4 9.68 -4 8.36 -4 7 C-5.65 7 -7.3 7 -9 7 C-8.67 6.34 -8.34 5.68 -8 5 C-7.401875 4.87625 -6.80375 4.7525 -6.1875 4.625 C-3.29805668 3.79944477 -1.98392064 2.19648357 0 0 Z " fill="#2D2D2D" transform="translate(138,92)"/>
<path d="M0 0 C0.33 1.32 0.66 2.64 1 4 C-0.62170379 5.00533667 -2.24747237 6.00411907 -3.875 7 C-5.23238281 7.8353125 -5.23238281 7.8353125 -6.6171875 8.6875 C-9 10 -9 10 -11 10 C-10.42415568 7.61435923 -9.77772405 5.33317216 -9 3 C-5.78715662 1.11420063 -3.75366417 0 0 0 Z " fill="#EEEEEE" transform="translate(124,161)"/>
<path d="M0 0 C0 0.99 0 1.98 0 3 C-3.2645028 6.2645028 -7.41047299 6.93236055 -11.9375 7.125 C-12.618125 7.08375 -13.29875 7.0425 -14 7 C-14.33 8.32 -14.66 9.64 -15 11 C-16.65 11.33 -18.3 11.66 -20 12 C-19.67 11.34 -19.34 10.68 -19 10 C-18.01 10 -17.02 10 -16 10 C-16 8.35 -16 6.7 -16 5 C-17.093125 5.45375 -18.18625 5.9075 -19.3125 6.375 C-19.92738281 6.63023437 -20.54226562 6.88546875 -21.17578125 7.1484375 C-23.26533932 8.06806692 -23.26533932 8.06806692 -26 10 C-24.63016497 6.83884224 -24.0109362 6.0072908 -21 4 C-19.0103005 3.60986284 -17.00980131 3.26797351 -15 3 C-14.67 3.66 -14.34 4.32 -14 5 C-6.34965501 3.86039485 -6.34965501 3.86039485 0 0 Z " fill="#292929" transform="translate(150,136)"/>
<path d="M0 0 C0.66 0.33 1.32 0.66 2 1 C2 1.99 2 2.98 2 4 C4.31 4 6.62 4 9 4 C6.38058783 5.74627478 4.96175123 6.38722388 2 7 C2 7.66 2 8.32 2 9 C1.34 9 0.68 9 0 9 C0 7.68 0 6.36 0 5 C-1.62723299 5.45034123 -3.25173664 5.91055354 -4.875 6.375 C-5.77992187 6.63023437 -6.68484375 6.88546875 -7.6171875 7.1484375 C-10.58490409 8.2090313 -11.65951326 9.35685838 -13.125 12.125 C-13.41375 12.74375 -13.7025 13.3625 -14 14 C-14.75 12.25 -14.75 12.25 -15 10 C-12.20422337 5.73976894 -7.74409192 4.55940007 -3.14453125 2.9296875 C-0.83228776 2.20020367 -0.83228776 2.20020367 0 0 Z " fill="#222222" transform="translate(126,128)"/>
<path d="M0 0 C1.9375 0.375 1.9375 0.375 4 1 C4.33 1.66 4.66 2.32 5 3 C4.01 3 3.02 3 2 3 C2 10.59 2 18.18 2 26 C3.32 26.33 4.64 26.66 6 27 C6 27.66 6 28.32 6 29 C1.125 27.125 1.125 27.125 0 26 C-0.08748207 24.07332493 -0.10697334 22.14348139 -0.09765625 20.21484375 C-0.09443359 19.04501953 -0.09121094 17.87519531 -0.08789062 16.66992188 C-0.07951172 15.43822266 -0.07113281 14.20652344 -0.0625 12.9375 C-0.05798828 11.70193359 -0.05347656 10.46636719 -0.04882812 9.19335938 C-0.03699608 6.12885883 -0.02051173 3.06445279 0 0 Z " fill="#404040" transform="translate(25,109)"/>
<path d="M0 0 C0 1.32 0 2.64 0 4 C-2.25 5.625 -2.25 5.625 -5 7 C-6.1446875 7.5878125 -6.1446875 7.5878125 -7.3125 8.1875 C-7.869375 8.455625 -8.42625 8.72375 -9 9 C-9.66 7.68 -10.32 6.36 -11 5 C-4.85714286 -0.71428571 -4.85714286 -0.71428571 0 0 Z " fill="#EBEBEB" transform="translate(157,72)"/>
<path d="M0 0 C0.3125 2.3125 0.3125 2.3125 0 5 C-2.1875 6.875 -2.1875 6.875 -5 8 C-7.8125 7.6875 -7.8125 7.6875 -10 7 C-7.88268985 1.88316713 -5.59548444 0 0 0 Z " fill="#E7E7E7" transform="translate(134,141)"/>
<path d="M0 0 C0.53625 0.226875 1.0725 0.45375 1.625 0.6875 C1.625 1.6775 1.625 2.6675 1.625 3.6875 C-1.74862154 6.29000805 -4.14407828 7.05015043 -8.375 6.6875 C-8.375 5.3675 -8.375 4.0475 -8.375 2.6875 C-2.95961538 -0.38942308 -2.95961538 -0.38942308 0 0 Z " fill="#DEDEDE" transform="translate(150.375,118.3125)"/>
<path d="M0 0 C0 1.32 0 2.64 0 4 C-3.72965139 6.03435531 -5.66905042 7 -10 7 C-9.60856977 4.72970466 -9.11258722 3.16591802 -7.8125 1.25 C-5.21312784 -0.54267046 -3.07660784 -0.20510719 0 0 Z " fill="#E9E9E9" transform="translate(123,106)"/>
<path d="M0 0 C-0.1875 2.3125 -0.1875 2.3125 -1 5 C-3.89548041 7.20970874 -5.33157745 8 -9 8 C-8.64005447 5.3364031 -8.28838998 3.41816548 -6.75 1.1875 C-4.41988723 -0.39364795 -2.75498245 -0.22337696 0 0 Z " fill="#E6E5E6" transform="translate(157,100)"/>
<path d="M0 0 C0 1.32 0 2.64 0 4 C-5 8 -5 8 -9 8 C-8.64005447 5.3364031 -8.28838998 3.41816548 -6.75 1.1875 C-4.41988723 -0.39364795 -2.75498245 -0.22337696 0 0 Z " fill="#F0F0F0" transform="translate(134,99)"/>
<path d="M0 0 C0.66 0.33 1.32 0.66 2 1 C1.2884375 1.6496875 1.2884375 1.6496875 0.5625 2.3125 C-1.23686957 4.02309613 -1.23686957 4.02309613 -2 7 C1.18234105 5.24545615 1.18234105 5.24545615 4 3 C5.99958364 2.95919217 8.00045254 2.95745644 10 3 C10 3.33 10 3.66 10 4 C9.05125 4.28875 8.1025 4.5775 7.125 4.875 C3.94788422 5.76825109 3.94788422 5.76825109 2 8 C-0.65537372 8.56520003 -3.29144713 8.73788198 -6 9 C-6.33 7.68 -6.66 6.36 -7 5 C-6.21625 4.54625 -5.4325 4.0925 -4.625 3.625 C-1.96301969 2.11571258 -1.96301969 2.11571258 0 0 Z " fill="#A6A6A6" transform="translate(137,80)"/>
<path d="M0 0 C3.4050149 0.67152266 6.04396413 1.99374129 9.0625 3.6875 C10.49722656 4.48607422 10.49722656 4.48607422 11.9609375 5.30078125 C12.96382812 5.86152344 13.96671875 6.42226562 15 7 C17.06123443 8.1273171 19.1236767 9.25242945 21.1875 10.375 C22.79166667 11.25 24.39583333 12.125 26 13 C26 13.66 26 14.32 26 15 C21.01075047 13.21235391 16.49231306 10.63055614 11.875 8.0625 C11.06417969 7.61970703 10.25335938 7.17691406 9.41796875 6.72070312 C8.63808594 6.28822266 7.85820313 5.85574219 7.0546875 5.41015625 C6.34812012 5.01965088 5.64155273 4.62914551 4.91357422 4.22680664 C2.99402205 2.99616749 1.54300624 1.67023022 0 0 Z " fill="#292929" transform="translate(61,71)"/>
<path d="M0 0 C0 1.32 0 2.64 0 4 C-3.96 5.98 -3.96 5.98 -8 8 C-8 6 -8 4 -8 2 C-3.61016949 -1.20338983 -3.61016949 -1.20338983 0 0 Z " fill="#EAEAEA" transform="translate(48,37)"/>
<path d="M0 0 C1.2065625 0.0309375 1.2065625 0.0309375 2.4375 0.0625 C2.7675 2.0425 3.0975 4.0225 3.4375 6.0625 C1.4575 7.0525 1.4575 7.0525 -0.5625 8.0625 C-0.8925 6.7425 -1.2225 5.4225 -1.5625 4.0625 C-4.2025 4.0625 -6.8425 4.0625 -9.5625 4.0625 C-9.5625 3.7325 -9.5625 3.4025 -9.5625 3.0625 C-8.1084375 2.5984375 -8.1084375 2.5984375 -6.625 2.125 C-0.53780864 0.01311728 -0.53780864 0.01311728 0 0 Z " fill="#5E5E5E" transform="translate(149.5625,87.9375)"/>
<path d="M0 0 C0.99 0.33 1.98 0.66 3 1 C1.68 1.33 0.36 1.66 -1 2 C-1 6.29 -1 10.58 -1 15 C-2.98 14.34 -4.96 13.68 -7 13 C-7.33 12.34 -7.66 11.68 -8 11 C-6.68 11.33 -5.36 11.66 -4 12 C-3.96261719 11.30132812 -3.92523438 10.60265625 -3.88671875 9.8828125 C-3.82097656 8.97273438 -3.75523438 8.06265625 -3.6875 7.125 C-3.62949219 6.22007813 -3.57148437 5.31515625 -3.51171875 4.3828125 C-3 2 -3 2 0 0 Z " fill="#353535" transform="translate(60,86)"/>
<path d="M0 0 C0.66 0 1.32 0 2 0 C2 4.29 2 8.58 2 13 C1.01 13.33 0.02 13.66 -1 14 C-1.02685938 11.85423363 -1.04633088 9.70837355 -1.0625 7.5625 C-1.07410156 6.36753906 -1.08570313 5.17257813 -1.09765625 3.94140625 C-1 1 -1 1 0 0 Z " fill="#FAFAFA" transform="translate(61,88)"/>
<path d="M0 0 C1.32 0.33 2.64 0.66 4 1 C3.01 1.495 3.01 1.495 2 2 C2.02320313 2.77085938 2.04640625 3.54171875 2.0703125 4.3359375 C2.09738281 5.84027344 2.09738281 5.84027344 2.125 7.375 C2.14820313 8.37273437 2.17140625 9.37046875 2.1953125 10.3984375 C2 13 2 13 0 15 C-2.5625 14.75 -2.5625 14.75 -5 14 C-5.33 13.34 -5.66 12.68 -6 12 C-3.03 12.495 -3.03 12.495 0 13 C0 8.71 0 4.42 0 0 Z " fill="#696969" transform="translate(52,73)"/>
<path d="M0 0 C0.99 0.33 1.98 0.66 3 1 C3 2.98 3 4.96 3 7 C3.99 7.33 4.98 7.66 6 8 C5.67 9.65 5.34 11.3 5 13 C3.046875 12.3515625 3.046875 12.3515625 1 11 C0.390625 8.3984375 0.390625 8.3984375 0.25 5.375 C0.19328125 4.37210937 0.1365625 3.36921875 0.078125 2.3359375 C0.05234375 1.56507812 0.0265625 0.79421875 0 0 Z " fill="#828282" transform="translate(64,111)"/>
<path d="M0 0 C0.33 0 0.66 0 1 0 C0.98839844 0.86882812 0.97679688 1.73765625 0.96484375 2.6328125 C0.95582031 3.78523437 0.94679688 4.93765625 0.9375 6.125 C0.92009766 7.83042969 0.92009766 7.83042969 0.90234375 9.5703125 C0.994673 12.8129156 1.38610094 15.81932612 2 19 C1.01 19.33 0.02 19.66 -1 20 C-1.02888514 16.85418577 -1.04675923 13.70840531 -1.0625 10.5625 C-1.07087891 9.66466797 -1.07925781 8.76683594 -1.08789062 7.84179688 C-1.09111328 6.98779297 -1.09433594 6.13378906 -1.09765625 5.25390625 C-1.10551147 4.06776733 -1.10551147 4.06776733 -1.11352539 2.85766602 C-1 1 -1 1 0 0 Z " fill="#393939" transform="translate(99,154)"/>
<path d="M0 0 C0.66 0 1.32 0 2 0 C2 0.99 2 1.98 2 3 C0.02 3.33 -1.96 3.66 -4 4 C-4.33 4.99 -4.66 5.98 -5 7 C-6.32 6.67 -7.64 6.34 -9 6 C-8.67 4.68 -8.34 3.36 -8 2 C-6.865625 1.855625 -5.73125 1.71125 -4.5625 1.5625 C-1.19222799 1.38828522 -1.19222799 1.38828522 0 0 Z " fill="#E6E6E6" transform="translate(136,126)"/>
<path d="M0 0 C0 1.32 0 2.64 0 4 C-1.95421035 4.86355778 -3.91351347 5.71559934 -5.875 6.5625 C-6.96554688 7.03816406 -8.05609375 7.51382813 -9.1796875 8.00390625 C-10.11039063 8.33261719 -11.04109375 8.66132812 -12 9 C-12.66 8.67 -13.32 8.34 -14 8 C-10.93882432 5.37613513 -10.26826873 5 -6 5 C-6 4.34 -6 3.68 -6 3 C-2.53846154 0 -2.53846154 0 0 0 Z " fill="#6E6E6E" transform="translate(139,107)"/>
<path d="M0 0 C0.66 0 1.32 0 2 0 C2 1.32 2 2.64 2 4 C0.53626953 4.39832031 0.53626953 4.39832031 -0.95703125 4.8046875 C-2.24226586 5.16117593 -3.52741784 5.51796239 -4.8125 5.875 C-6.70935547 6.39707031 -6.70935547 6.39707031 -8.64453125 6.9296875 C-12.08408713 7.85700295 -12.08408713 7.85700295 -15 10 C-14.014242 7.42960951 -13.48462425 6.24231213 -10.9765625 4.98828125 C-10.20054687 4.76527344 -9.42453125 4.54226562 -8.625 4.3125 C-7.85414063 4.08175781 -7.08328125 3.85101563 -6.2890625 3.61328125 C-4.19765876 3.05295636 -2.10328476 2.51381614 0 2 C0 1.34 0 0.68 0 0 Z " fill="#2D2D2D" transform="translate(150,129)"/>
<path d="M0 0 C0.66 0.66 1.32 1.32 2 2 C4.32275177 2.40047444 6.65739357 2.7397104 9 3 C9 3.33 9 3.66 9 4 C4.58774263 5.47075246 1.51718381 6.36884358 -3 5 C-1.125 1.125 -1.125 1.125 0 0 Z " fill="#C9C9C9" transform="translate(138,136)"/>
<path d="M0 0 C4.75 0.75 4.75 0.75 7 3 C6.01 4.32 5.02 5.64 4 7 C2 5.75 2 5.75 0 4 C0 2.68 0 1.36 0 0 Z " fill="#E0E0E0" transform="translate(44,132)"/>
<path d="M0 0 C0.66 0.33 1.32 0.66 2 1 C1.01 1.33 0.02 1.66 -1 2 C-1.268125 2.639375 -1.53625 3.27875 -1.8125 3.9375 C-3 6 -3 6 -5.875 7.1875 C-6.90625 7.455625 -7.9375 7.72375 -9 8 C-9.78375 8.20625 -10.5675 8.4125 -11.375 8.625 C-11.91125 8.74875 -12.4475 8.8725 -13 9 C-9.49391962 4.88416651 -4.95371163 2.09432982 0 0 Z " fill="#535353" transform="translate(163,135)"/>
<path d="M0 0 C0.99 0.66 1.98 1.32 3 2 C2.67 2.99 2.34 3.98 2 5 C-0.97 5 -3.94 5 -7 5 C-6.01 4.01 -5.02 3.02 -4 2 C-2.68 2 -1.36 2 0 2 C0 1.34 0 0.68 0 0 Z " fill="#F6F5F6" transform="translate(147,91)"/>
<path d="M0 0 C4.25472632 -0.12156361 8.14497757 0.07248878 12 2 C11.113125 2.226875 10.22625 2.45375 9.3125 2.6875 C5.56619468 4.17188513 3.66270566 6.02403485 1 9 C0.34 8.67 -0.32 8.34 -1 8 C-0.360625 7.5875 0.27875 7.175 0.9375 6.75 C3.20990931 4.82189513 3.60196439 3.88575819 4 1 C2.68 0.67 1.36 0.34 0 0 Z " fill="#333333" transform="translate(125,87)"/>
<path d="M0 0 C1.32 0.66 2.64 1.32 4 2 C3.67 3.32 3.34 4.64 3 6 C-1.75 5.25 -1.75 5.25 -4 3 C-3.01 2.67 -2.02 2.34 -1 2 C-0.67 1.34 -0.34 0.68 0 0 Z " fill="#E4E4E4" transform="translate(86,140)"/>
<path d="M0 0 C2.35953094 2.35953094 2.49141413 3.77895617 3 7 C-5.71428571 5.14285714 -5.71428571 5.14285714 -8 2 C-5.69 2.33 -3.38 2.66 -1 3 C-0.67 2.01 -0.34 1.02 0 0 Z " fill="#858585" transform="translate(90,142)"/>
<path d="M0 0 C0.66 1.32 1.32 2.64 2 4 C-1 6 -1 6 -4 6 C-4 4.35 -4 2.7 -4 1 C-2.68 0.67 -1.36 0.34 0 0 Z " fill="#EEEEEE" transform="translate(135,112)"/>
<path d="M0 0 C0.99 0.33 1.98 0.66 3 1 C1.23754778 2.1999038 -0.53526981 3.38459517 -2.3125 4.5625 C-3.79169922 5.55443359 -3.79169922 5.55443359 -5.30078125 6.56640625 C-6.19152344 7.03949219 -7.08226562 7.51257813 -8 8 C-8.99 7.67 -9.98 7.34 -11 7 C-10.45730469 6.66226563 -9.91460937 6.32453125 -9.35546875 5.9765625 C-8.64003906 5.53054687 -7.92460937 5.08453125 -7.1875 4.625 C-6.47980469 4.18414062 -5.77210938 3.74328125 -5.04296875 3.2890625 C-3.34567961 2.21811524 -1.66985642 1.11323761 0 0 Z " fill="#373637" transform="translate(143,69)"/>
<path d="M0 0 C-2.87164566 2.70272533 -4.30991841 3.94791837 -8.3125 4.25 C-9.199375 4.1675 -10.08625 4.085 -11 4 C-11 3.34 -11 2.68 -11 2 C-7.17010894 0.19769832 -4.21878192 -0.19622241 0 0 Z " fill="#838383" transform="translate(129,88)"/>
<path d="M0 0 C1.32 0.33 2.64 0.66 4 1 C3.67 1.66 3.34 2.32 3 3 C4.32 3 5.64 3 7 3 C7 3.66 7 4.32 7 5 C5.02 5 3.04 5 1 5 C0.67 3.35 0.34 1.7 0 0 Z " fill="#7A7A7A" transform="translate(106,127)"/>
<path d="M0 0 C0.99 0 1.98 0 3 0 C2 3 2 3 0.00390625 4.203125 C-0.80175781 4.54859375 -1.60742188 4.8940625 -2.4375 5.25 C-3.24058594 5.60578125 -4.04367188 5.9615625 -4.87109375 6.328125 C-7 7 -7 7 -9 6 C-2.25 2 -2.25 2 0 2 C0 1.34 0 0.68 0 0 Z " fill="#444444" transform="translate(124,157)"/>
<path d="M0 0 C-0.598125 0.2475 -1.19625 0.495 -1.8125 0.75 C-4.28647521 2.16370012 -5.43370255 3.65055383 -7 6 C-6.34 6.33 -5.68 6.66 -5 7 C-6.32 7.33 -7.64 7.66 -9 8 C-8.64005447 5.3364031 -8.28838998 3.41816548 -6.75 1.1875 C-4.41988723 -0.39364795 -2.75498245 -0.22337696 0 0 Z " fill="#DEDEDE" transform="translate(134,99)"/>
<path d="M0 0 C4.75 0.875 4.75 0.875 7 2 C7 2.66 7 3.32 7 4 C9.475 4.99 9.475 4.99 12 6 C11.01 6.495 11.01 6.495 10 7 C7.6171875 5.8203125 7.6171875 5.8203125 4.875 4.125 C3.96492188 3.57070312 3.05484375 3.01640625 2.1171875 2.4453125 C1.41851562 1.96835938 0.71984375 1.49140625 0 1 C0 0.67 0 0.34 0 0 Z " fill="#4A4A4A" transform="translate(70,83)"/>
<path d="M0 0 C1.32 0.66 2.64 1.32 4 2 C3.67 2.99 3.34 3.98 3 5 C1.35 5 -0.3 5 -2 5 C-1.125 1.125 -1.125 1.125 0 0 Z " fill="#EAEAEA" transform="translate(43,77)"/>
<path d="M0 0 C1.65 0 3.3 0 5 0 C5 1.32 5 2.64 5 4 C4.01 4.66 3.02 5.32 2 6 C1.01 5.67 0.02 5.34 -1 5 C0.32 3.68 1.64 2.36 3 1 C2.01 0.67 1.02 0.34 0 0 Z " fill="#363636" transform="translate(118,56)"/>
<path d="M0 0 C1.65 0 3.3 0 5 0 C4.67 1.32 4.34 2.64 4 4 C2.68 4 1.36 4 0 4 C0 2.68 0 1.36 0 0 Z " fill="#E2E2E2" transform="translate(152,129)"/>
<path d="M0 0 C4.19360449 0.67097672 7.40334352 2.8558394 11 5 C10.67 5.66 10.34 6.32 10 7 C8.33073546 6.02526874 6.66464358 5.04510211 5 4.0625 C4.071875 3.51722656 3.14375 2.97195312 2.1875 2.41015625 C1.465625 1.94480469 0.74375 1.47945313 0 1 C0 0.67 0 0.34 0 0 Z " fill="#3E3E3E" transform="translate(61,71)"/>
<path d="M0 0 C0 1.65 0 3.3 0 5 C-0.66 5 -1.32 5 -2 5 C-2 4.01 -2 3.02 -2 2 C-3.65 2.33 -5.3 2.66 -7 3 C-4.49955934 -0.00052879 -4.2621484 0 0 0 Z " fill="#D0D0D0" transform="translate(134,141)"/>
<path d="M0 0 C0.66 0.33 1.32 0.66 2 1 C-2.296875 5.00390625 -2.296875 5.00390625 -4 6 C-6.203125 5.65234375 -6.203125 5.65234375 -8 5 C-6.71475739 4.13619741 -5.42157581 3.28419631 -4.125 2.4375 C-3.04605469 1.72400391 -3.04605469 1.72400391 -1.9453125 0.99609375 C-1.30335937 0.66738281 -0.66140625 0.33867187 0 0 Z " fill="#383838" transform="translate(89,9)"/>
<path d="M0 0 C0 0.66 0 1.32 0 2 C-2.31 2.33 -4.62 2.66 -7 3 C-7 2.34 -7 1.68 -7 1 C-4.53721199 -0.231394 -2.7204945 -0.07159196 0 0 Z " fill="#949494" transform="translate(139,129)"/>
<path d="" fill="#000000" transform="translate(0,0)"/>
<path d="" fill="#000000" transform="translate(0,0)"/>
<path d="" fill="#010101" transform="translate(0,0)"/>
<path d="" fill="#000000" transform="translate(0,0)"/>
<path d="" fill="#000000" transform="translate(0,0)"/>
<path d="" fill="#000000" transform="translate(0,0)"/>
<path d="" fill="#000000" transform="translate(0,0)"/>
<path d="" fill="#000000" transform="translate(0,0)"/>
<path d="" fill="#000000" transform="translate(0,0)"/>
<path d="" fill="#000000" transform="translate(0,0)"/>
<path d="" fill="#000000" transform="translate(0,0)"/>
</svg>
